<svg width="215" height="63" viewBox="0 0 215 63" fill="none" xmlns="http://www.w3.org/2000/svg">
<path d="M1.53305 0.373433H5.46905C6.33305 0.373433 7.05305 0.506766 7.62905 0.773433C8.20505 1.0401 8.62105 1.45077 8.87705 2.00543C9.05838 2.41077 9.14905 2.90677 9.14905 3.49343C9.14905 4.09077 9.05838 4.5921 8.87705 4.99743C8.62105 5.54143 8.20505 5.9521 7.62905 6.22943C7.05305 6.4961 6.33305 6.62943 5.46905 6.62943H2.87705V11.6694H1.53305V0.373433ZM5.19705 5.46143C5.84772 5.46143 6.37038 5.38677 6.76505 5.23743C7.15972 5.07743 7.43705 4.8161 7.59705 4.45343C7.71438 4.16543 7.77305 3.85077 7.77305 3.50943C7.77305 3.1361 7.70905 2.8161 7.58105 2.54943C7.42105 2.18677 7.14372 1.92543 6.74905 1.76543C6.35438 1.60543 5.83705 1.52543 5.19705 1.52543H2.87705V5.46143H5.19705ZM14.0096 11.8614C13.1562 11.8614 12.4309 11.6801 11.8336 11.3174C11.2469 10.9548 10.8096 10.4534 10.5216 9.81343C10.2549 9.23743 10.1216 8.5601 10.1216 7.78143C10.1216 7.0241 10.2549 6.34677 10.5216 5.74943C10.8096 5.10943 11.2469 4.6081 11.8336 4.24543C12.4309 3.88277 13.1562 3.70143 14.0096 3.70143C14.8629 3.70143 15.5829 3.88277 16.1696 4.24543C16.7669 4.6081 17.2096 5.10943 17.4976 5.74943C17.7642 6.3681 17.8976 7.04543 17.8976 7.78143C17.8976 8.51743 17.7642 9.19477 17.4976 9.81343C17.2096 10.4534 16.7669 10.9548 16.1696 11.3174C15.5829 11.6801 14.8629 11.8614 14.0096 11.8614ZM14.0096 10.7414C14.5642 10.7414 15.0282 10.6294 15.4016 10.4054C15.7749 10.1708 16.0576 9.84543 16.2496 9.42943C16.4416 9.00277 16.5376 8.45343 16.5376 7.78143C16.5376 7.09877 16.4416 6.54943 16.2496 6.13343C16.0576 5.71743 15.7749 5.39743 15.4016 5.17343C15.0282 4.93877 14.5642 4.82143 14.0096 4.82143C13.4549 4.82143 12.9856 4.93877 12.6016 5.17343C12.2282 5.39743 11.9509 5.71743 11.7696 6.13343C11.5776 6.54943 11.4816 7.09877 11.4816 7.78143C11.4816 8.45343 11.5776 9.00277 11.7696 9.42943C11.9616 9.84543 12.2442 10.1708 12.6176 10.4054C12.9909 10.6294 13.4549 10.7414 14.0096 10.7414ZM30.3987 3.89343L27.6147 11.6694H26.3027L24.4467 5.62143L22.6067 11.6694H21.2787L18.5107 3.89343H19.8867L21.9187 10.0854L23.8067 3.89343H25.0867L26.9747 10.0694L29.0227 3.89343H30.3987ZM36.8196 10.2134C36.9902 10.0534 37.1289 9.86677 37.2356 9.65343C37.3422 9.42943 37.4062 9.18943 37.4276 8.93343H38.7076C38.6436 9.7441 38.3342 10.4108 37.7796 10.9334C37.4382 11.2321 37.0329 11.4614 36.5635 11.6214C36.0942 11.7708 35.5716 11.8454 34.9956 11.8454C34.1209 11.8454 33.3742 11.6694 32.7555 11.3174C32.1369 10.9654 31.6889 10.4641 31.4115 9.81343C31.1449 9.26943 31.0115 8.5921 31.0115 7.78143C31.0115 7.36543 31.0435 6.9921 31.1075 6.66143C31.1715 6.33077 31.2729 6.02143 31.4115 5.73343C31.6995 5.09343 32.1422 4.59743 32.7395 4.24543C33.3369 3.88277 34.0569 3.70143 34.8995 3.70143C35.7422 3.70143 36.4569 3.87743 37.0436 4.22943C37.6409 4.58143 38.0782 5.06677 38.3556 5.68543C38.5049 6.02677 38.6062 6.3841 38.6596 6.75743C38.7236 7.13077 38.7556 7.5681 38.7556 8.06943H32.3075C32.3395 8.63477 32.4355 9.09877 32.5956 9.46143C32.7875 9.8881 33.0862 10.2188 33.4915 10.4534C33.8969 10.6774 34.3929 10.7894 34.9795 10.7894C35.3636 10.7894 35.7102 10.7414 36.0196 10.6454C36.3396 10.5494 36.6062 10.4054 36.8196 10.2134ZM34.9156 4.77343C33.7636 4.77343 32.9902 5.22143 32.5956 6.11743C32.4675 6.4161 32.3822 6.74143 32.3395 7.09343H37.4436C37.4009 6.69877 37.3156 6.34677 37.1876 6.03743C37.0062 5.62143 36.7236 5.30677 36.3396 5.09343C35.9556 4.8801 35.4809 4.77343 34.9156 4.77343ZM43.9052 3.79743C44.1825 3.79743 44.4438 3.82943 44.6892 3.89343V5.04543C44.4438 4.9921 44.1825 4.96543 43.9052 4.96543C43.2118 4.96543 42.6892 5.17343 42.3372 5.58943C41.9852 5.99477 41.8092 6.58143 41.8092 7.34943V11.6694H40.5292V3.89343H41.7932V4.90143C42.0065 4.54943 42.2892 4.27743 42.6412 4.08543C42.9932 3.89343 43.4145 3.79743 43.9052 3.79743ZM51.3658 10.2134C51.5365 10.0534 51.6751 9.86677 51.7818 9.65343C51.8885 9.42943 51.9525 9.18943 51.9738 8.93343H53.2538C53.1898 9.7441 52.8805 10.4108 52.3258 10.9334C51.9845 11.2321 51.5791 11.4614 51.1098 11.6214C50.6405 11.7708 50.1178 11.8454 49.5418 11.8454C48.6671 11.8454 47.9205 11.6694 47.3018 11.3174C46.6831 10.9654 46.2351 10.4641 45.9578 9.81343C45.6911 9.26943 45.5578 8.5921 45.5578 7.78143C45.5578 7.36543 45.5898 6.9921 45.6538 6.66143C45.7178 6.33077 45.8191 6.02143 45.9578 5.73343C46.2458 5.09343 46.6885 4.59743 47.2858 4.24543C47.8831 3.88277 48.6031 3.70143 49.4458 3.70143C50.2885 3.70143 51.0031 3.87743 51.5898 4.22943C52.1871 4.58143 52.6245 5.06677 52.9018 5.68543C53.0511 6.02677 53.1525 6.3841 53.2058 6.75743C53.2698 7.13077 53.3018 7.5681 53.3018 8.06943H46.8538C46.8858 8.63477 46.9818 9.09877 47.1418 9.46143C47.3338 9.8881 47.6325 10.2188 48.0378 10.4534C48.4431 10.6774 48.9391 10.7894 49.5258 10.7894C49.9098 10.7894 50.2565 10.7414 50.5658 10.6454C50.8858 10.5494 51.1525 10.4054 51.3658 10.2134ZM49.4618 4.77343C48.3098 4.77343 47.5365 5.22143 47.1418 6.11743C47.0138 6.4161 46.9285 6.74143 46.8858 7.09343H51.9898C51.9471 6.69877 51.8618 6.34677 51.7338 6.03743C51.5525 5.62143 51.2698 5.30677 50.8858 5.09343C50.5018 4.8801 50.0271 4.77343 49.4618 4.77343ZM62.3223 0.373433V11.6694H61.0583V10.4854C60.7703 10.9334 60.3863 11.2748 59.9063 11.5094C59.4263 11.7334 58.8823 11.8454 58.2743 11.8454C57.5276 11.8454 56.8823 11.6801 56.3383 11.3494C55.7943 11.0081 55.3836 10.5334 55.1063 9.92543C54.829 9.30677 54.6903 8.5921 54.6903 7.78143C54.6903 6.97077 54.829 6.2561 55.1063 5.63743C55.3836 5.01877 55.7943 4.5441 56.3383 4.21343C56.8823 3.8721 57.5276 3.70143 58.2743 3.70143C58.8716 3.70143 59.4103 3.81877 59.8903 4.05343C60.3703 4.27743 60.7543 4.6081 61.0423 5.04543V0.373433H62.3223ZM61.0423 7.58943C61.0423 7.00277 60.941 6.50143 60.7383 6.08543C60.5356 5.66943 60.2476 5.35477 59.8743 5.14143C59.5116 4.9281 59.0796 4.82143 58.5783 4.82143C58.0556 4.82143 57.6023 4.93343 57.2183 5.15743C56.8343 5.38143 56.5463 5.7121 56.3543 6.14943C56.1516 6.58677 56.0503 7.13077 56.0503 7.78143C56.0503 8.41077 56.1516 8.95477 56.3543 9.41343C56.5463 9.8401 56.8343 10.1708 57.2183 10.4054C57.6023 10.6294 58.0556 10.7414 58.5783 10.7414C59.0796 10.7414 59.5116 10.6348 59.8743 10.4214C60.2476 10.2081 60.5356 9.89343 60.7383 9.47743C60.941 9.06143 61.0423 8.5601 61.0423 7.97343V7.58943ZM74.9154 5.63743C75.1928 6.2561 75.3314 6.97077 75.3314 7.78143C75.3314 8.5921 75.1928 9.30677 74.9154 9.92543C74.6381 10.5334 74.2274 11.0081 73.6834 11.3494C73.1501 11.6801 72.5048 11.8454 71.7474 11.8454C71.1394 11.8454 70.5954 11.7334 70.1154 11.5094C69.6354 11.2748 69.2514 10.9334 68.9634 10.4854V11.6694H67.7154V0.373433H68.9954V5.02943C69.2941 4.5921 69.6781 4.26143 70.1474 4.03743C70.6168 3.81343 71.1501 3.70143 71.7474 3.70143C72.5048 3.70143 73.1501 3.8721 73.6834 4.21343C74.2274 4.5441 74.6381 5.01877 74.9154 5.63743ZM73.6674 9.41343C73.8701 8.95477 73.9714 8.41077 73.9714 7.78143C73.9714 7.13077 73.8701 6.58677 73.6674 6.14943C73.4754 5.7121 73.1874 5.38143 72.8034 5.15743C72.4301 4.93343 71.9821 4.82143 71.4594 4.82143C70.9581 4.82143 70.5208 4.9281 70.1474 5.14143C69.7741 5.35477 69.4861 5.66943 69.2834 6.08543C69.0808 6.50143 68.9794 7.00277 68.9794 7.58943V7.97343C68.9794 8.5601 69.0808 9.06143 69.2834 9.47743C69.4861 9.89343 69.7741 10.2081 70.1474 10.4214C70.5208 10.6348 70.9581 10.7414 71.4594 10.7414C71.9821 10.7414 72.4301 10.6294 72.8034 10.4054C73.1874 10.1708 73.4754 9.8401 73.6674 9.41343ZM83.7778 3.89343L78.9778 14.9014H77.6338L79.0738 11.5894L75.9538 3.89343H77.3778L79.7938 10.1974L82.3858 3.89343H83.7778Z" fill="#121212"/>
<path d="M42.5662 47.0744H16.7654C16.5117 46.5309 16.3668 45.9329 16.3668 45.3169C16.3668 44.7009 16.5117 44.0849 16.7654 43.5594H42.5662C42.6386 42.5629 42.7473 41.5845 42.9285 40.6242H15.2253C14.102 41.8744 13.4316 43.5232 13.4316 45.335C13.4316 47.1469 14.1201 48.7957 15.2253 50.0458H42.9285C42.7473 49.0856 42.6386 48.1072 42.5662 47.1106" fill="#121212"/>
<path d="M46.9691 60.011H8.57602C5.35093 55.9887 3.41225 50.8792 3.41225 45.3169C3.41225 39.7545 5.35093 34.6451 8.57602 30.6046H46.951C47.6395 29.5719 48.4005 28.5935 49.2339 27.6694H7.21713C3.03176 32.344 0.477051 38.5405 0.477051 45.3169C0.477051 52.0932 3.03176 58.2716 7.21713 62.9643H49.2521C48.4186 62.0402 47.6576 61.0618 46.9691 60.0291" fill="#121212"/>
<path d="M43.8167 53.5427H12.6347C10.9316 51.2416 9.91693 48.397 9.91693 45.3169C9.91693 42.2367 10.9316 39.374 12.6528 37.073H43.8348C44.1609 36.0583 44.5595 35.0799 44.9944 34.1378H11.2396C8.57616 37.1092 6.96362 41.0228 6.96362 45.3169C6.96362 49.611 8.57616 53.5246 11.2396 56.496H44.9944C44.5595 55.5538 44.1609 54.5573 43.8348 53.5608" fill="#121212"/>
<path d="M63.0943 48.5057C61.5542 47.5817 60.4127 46.2772 59.6699 44.574C58.9451 42.9977 58.5828 41.059 58.5828 38.7761C58.5828 36.4932 58.9451 34.5907 59.6699 32.9601C60.4309 31.275 61.5723 29.9705 63.1124 29.0646C64.6344 28.1405 66.5187 27.6876 68.7473 27.6876C70.1243 27.6876 71.3926 27.8869 72.5521 28.2855C73.7117 28.6841 74.7082 29.282 75.5598 30.0611C76.3389 30.7677 76.9549 31.6193 77.3898 32.6158C77.8246 33.6123 78.0783 34.6994 78.1145 35.8953H74.4908C74.4183 34.3733 73.8748 33.1594 72.8964 32.2353C71.8093 31.275 70.396 30.7858 68.6385 30.7858C67.2797 30.7858 66.1201 31.0757 65.1779 31.6374C64.2357 32.1991 63.5291 33.0144 63.0399 34.0472C62.7863 34.6632 62.587 35.3698 62.4601 36.1308C62.3333 36.9099 62.2608 37.7796 62.2608 38.7942C62.2608 39.8089 62.3152 40.7148 62.442 41.4758C62.5688 42.2549 62.7681 42.9252 63.0399 43.5413C63.5291 44.6103 64.2357 45.4075 65.1779 45.9692C66.1201 46.5308 67.2615 46.8026 68.6385 46.8026C69.5445 46.8026 70.3598 46.6758 71.1027 46.4221C71.8455 46.1685 72.4797 45.8242 72.987 45.3531C73.9654 44.4653 74.4908 43.2333 74.5452 41.6388H78.1689C78.1508 42.8347 77.9152 43.9399 77.4985 44.9364C77.0636 45.9329 76.4657 46.8026 75.6866 47.5092C74.8532 48.2883 73.8386 48.8862 72.6609 49.2848C71.4831 49.6834 70.1967 49.8827 68.7835 49.8827C66.5368 49.8827 64.6525 49.4298 63.1124 48.5057H63.0943Z" fill="#121212"/>
<path d="M83.8944 48.6869C82.7348 47.9803 81.8651 47.02 81.3216 45.7698C80.8143 44.7008 80.5787 43.4507 80.5787 42.0193C80.5787 40.5879 80.8324 39.3197 81.3216 38.2325C81.8832 37.0005 82.7348 36.0221 83.8944 35.3155C85.054 34.6088 86.4853 34.2646 88.1523 34.2646C89.8192 34.2646 91.2686 34.6088 92.4282 35.3155C93.6059 36.0221 94.4575 36.9824 95.0192 38.2325C95.5265 39.3559 95.762 40.6061 95.762 42.0193C95.762 43.4326 95.5084 44.6465 95.0192 45.8061C94.4575 47.0381 93.5878 48.0165 92.4282 48.705C91.2505 49.3935 89.8373 49.7378 88.1523 49.7378C86.4672 49.7378 85.054 49.3935 83.8944 48.6869ZM90.4171 46.3859C91.0331 46.0235 91.4861 45.4981 91.776 44.8458C92.084 44.1573 92.2289 43.2333 92.2289 42.0193C92.2289 40.8054 92.084 39.8632 91.776 39.1928C91.4679 38.5043 91.015 37.997 90.4171 37.6346C89.801 37.2723 89.0582 37.0911 88.1523 37.0911C87.2463 37.0911 86.5035 37.2723 85.9056 37.6346C85.3076 37.997 84.8547 38.5224 84.5467 39.1928C84.2205 39.8994 84.0575 40.8416 84.0575 42.0193C84.0575 43.197 84.2205 44.1211 84.5467 44.8458C84.8547 45.4981 85.2895 46.0235 85.9056 46.3859C86.5035 46.7482 87.2644 46.9475 88.1523 46.9475C89.0401 46.9475 89.801 46.7664 90.4171 46.3859Z" fill="#121212"/>
<path d="M110.493 35.8047C111.471 36.8193 111.96 38.3231 111.96 40.2799V49.3754H108.663V40.9322C108.663 39.6096 108.391 38.6493 107.847 38.0151C107.304 37.3991 106.47 37.0911 105.347 37.0911C104.169 37.0911 103.263 37.4353 102.647 38.1057C102.031 38.7761 101.723 39.7726 101.723 41.0953V49.3754H98.3894V34.6632H101.723V36.312C102.738 34.9531 104.278 34.2646 106.325 34.2646C108.119 34.2646 109.514 34.7719 110.493 35.7865V35.8047Z" fill="#121212"/>
<path d="M117.395 48.4876C116.671 47.7447 116.308 46.5127 116.308 44.8458V37.3991H114.025V34.6632H116.308V28.6841H119.606V34.6632H123.773V37.3991H119.606V44.2479C119.606 45.1357 119.787 45.7698 120.168 46.1865C120.53 46.6033 121.11 46.8026 121.889 46.8026C122.523 46.8026 123.121 46.7301 123.664 46.567V49.321C122.722 49.5203 121.798 49.6291 120.91 49.6291C119.316 49.6291 118.138 49.2486 117.414 48.5057L117.395 48.4876Z" fill="#121212"/>
<path d="M130.169 34.6631H126.835V49.3754H130.169V34.6631Z" fill="#121212"/>
<path d="M145.769 35.8047C146.747 36.8193 147.236 38.3231 147.236 40.2799V49.3754H143.939V40.9322C143.939 39.6096 143.667 38.6493 143.123 38.0151C142.58 37.3991 141.746 37.0911 140.623 37.0911C139.445 37.0911 138.539 37.4353 137.923 38.1057C137.307 38.7761 136.999 39.7726 136.999 41.0953V49.3754H133.666V34.6632H136.999V36.312C138.014 34.9531 139.554 34.2646 141.601 34.2646C143.395 34.2646 144.79 34.7719 145.769 35.7865V35.8047Z" fill="#121212"/>
<path d="M161.315 45.2987C161.478 44.9545 161.587 44.6102 161.623 44.2841H164.92C164.775 45.7698 164.196 46.9837 163.181 47.944C162.529 48.5238 161.713 48.9768 160.771 49.2848C159.829 49.5928 158.796 49.7559 157.673 49.7559C155.952 49.7559 154.484 49.4116 153.27 48.7412C152.056 48.0527 151.168 47.0924 150.607 45.8604C150.136 44.7733 149.882 43.505 149.882 42.0193C149.882 41.2583 149.936 40.5698 150.063 39.9537C150.19 39.3377 150.371 38.7579 150.607 38.2144C151.168 36.9823 152.038 36.022 153.198 35.3335C154.375 34.645 155.771 34.3189 157.419 34.3189C159.068 34.3189 160.463 34.6631 161.641 35.3335C162.819 36.022 163.67 36.9642 164.214 38.1781C164.522 38.8666 164.721 39.5733 164.83 40.3161C164.938 41.059 164.993 41.9287 164.993 42.9614H153.252C153.306 43.8492 153.469 44.5377 153.705 45.0269C154.013 45.7154 154.484 46.2227 155.154 46.5851C155.807 46.9475 156.64 47.1287 157.619 47.1287C158.253 47.1287 158.833 47.0562 159.358 46.8931C159.883 46.7301 160.3 46.4945 160.644 46.2046C160.898 45.9691 161.115 45.6792 161.297 45.3349L161.315 45.2987ZM153.723 39.0841C153.524 39.5189 153.397 39.99 153.325 40.4973H161.587C161.532 39.9719 161.405 39.4645 161.224 38.9753C160.898 38.3231 160.427 37.8158 159.811 37.4715C159.195 37.1273 158.416 36.9642 157.492 36.9642C155.607 36.9642 154.357 37.6708 153.705 39.1022L153.723 39.0841Z" fill="#121212"/>
<path d="M179.94 35.8047C180.918 36.8193 181.408 38.3231 181.408 40.2799V49.3754H178.11V40.9322C178.11 39.6096 177.838 38.6493 177.295 38.0151C176.751 37.3991 175.918 37.0911 174.794 37.0911C173.617 37.0911 172.711 37.4353 172.095 38.1057C171.479 38.7761 171.171 39.7726 171.171 41.0953V49.3754H167.837V34.6632H171.171V36.312C172.185 34.9531 173.725 34.2646 175.773 34.2646C177.566 34.2646 178.962 34.7719 179.94 35.7865V35.8047Z" fill="#121212"/>
<path d="M186.844 48.4876C186.119 47.7447 185.757 46.5127 185.757 44.8458V37.3991H183.474V34.6632H185.757V28.6841H189.054V34.6632H193.222V37.3991H189.054V44.2479C189.054 45.1357 189.235 45.7698 189.616 46.1865C189.978 46.6033 190.558 46.8026 191.337 46.8026C191.971 46.8026 192.569 46.7301 193.113 46.567V49.321C192.171 49.5203 191.247 49.6291 190.359 49.6291C188.764 49.6291 187.587 49.2486 186.862 48.5057L186.844 48.4876Z" fill="#121212"/>
<path d="M209.075 40.751V49.3754H205.741V47.7266C204.672 49.0674 203.005 49.7378 200.704 49.7378C199.399 49.7378 198.294 49.5204 197.406 49.1036C196.5 48.6869 195.884 48.0709 195.522 47.2374C195.268 46.6576 195.123 46.0054 195.123 45.2625C195.123 44.5197 195.25 43.8855 195.486 43.342C195.993 42.2367 196.845 41.4939 198.04 41.0771C199.236 40.6604 200.794 40.4611 202.697 40.4611H205.759V40.0625C205.759 39.682 205.741 39.374 205.705 39.1204C205.668 38.8667 205.578 38.613 205.469 38.3594C205.034 37.3991 204.001 36.9099 202.407 36.9099C201.592 36.9099 200.921 37.0186 200.396 37.236C199.87 37.4534 199.508 37.7977 199.291 38.2869C199.146 38.6493 199.073 38.9754 199.073 39.2834H195.703C195.703 38.45 195.848 37.7252 196.12 37.1454C196.971 35.2249 199.055 34.2646 202.371 34.2646C203.983 34.2646 205.306 34.5001 206.321 34.9893C207.335 35.4785 208.06 36.2214 208.495 37.236C208.893 38.1238 209.093 39.2834 209.093 40.751H209.075ZM205.741 43.0339V42.8528H202.896C201.791 42.8528 200.885 42.9434 200.16 43.1245C199.436 43.3057 198.965 43.6319 198.747 44.1211C198.62 44.3566 198.566 44.6465 198.566 44.9545C198.566 45.2625 198.62 45.5705 198.747 45.8604C198.946 46.2772 199.291 46.5852 199.798 46.7845C200.305 46.9838 200.885 47.0925 201.574 47.0925C202.534 47.0925 203.331 46.9294 203.983 46.5852C204.617 46.2409 205.089 45.7517 205.397 45.0813C205.632 44.5015 205.759 43.813 205.759 43.0339H205.741Z" fill="#121212"/>
<path d="M211.666 28.6841H215V49.3754H211.666V28.6841Z" fill="#121212"/>
<path d="M128.502 32.5071C129.593 32.5071 130.477 31.6229 130.477 30.5321C130.477 29.4414 129.593 28.5572 128.502 28.5572C127.411 28.5572 126.527 29.4414 126.527 30.5321C126.527 31.6229 127.411 32.5071 128.502 32.5071Z" fill="#121212"/>
<path d="M58.6002 52.4556H60.2852V62.7651H58.6002V52.4556Z" fill="#121212"/>
<path d="M68.2207 56.1699C68.6918 56.6591 68.9273 57.3839 68.9273 58.3442V62.7651H67.3148V58.6703C67.3148 58.0361 67.188 57.5651 66.9162 57.257C66.6444 56.949 66.2458 56.8041 65.7022 56.8041C65.1225 56.8041 64.6876 56.9672 64.3796 57.2933C64.0716 57.6194 63.9266 58.1086 63.9266 58.7428V62.7651H62.3141V55.6083H63.9266V56.4055C64.4158 55.7351 65.1587 55.409 66.1552 55.409C67.0249 55.409 67.7134 55.6626 68.1845 56.1518L68.2207 56.1699Z" fill="#121212"/>
<path d="M71.7177 62.3302C71.3553 61.9678 71.1922 61.3699 71.1922 60.5546V56.9309H70.087V55.6082H71.1922V53.887H72.8048V55.6082H74.8341V56.9309H72.8048V60.2647C72.8048 60.6995 72.8954 61.0075 73.0766 61.2068C73.2577 61.4061 73.5295 61.5148 73.91 61.5148C74.218 61.5148 74.5079 61.4786 74.7797 61.4061V62.7469C74.3267 62.8375 73.8738 62.8919 73.4389 62.8919C72.6598 62.8919 72.0982 62.7107 71.7358 62.3483L71.7177 62.3302Z" fill="#121212"/>
<path d="M81.3389 60.7719C81.4295 60.6089 81.4657 60.4458 81.4838 60.2827H83.0964C83.0239 61.0075 82.7521 61.6054 82.2448 62.0584C81.9187 62.3483 81.5382 62.5657 81.0852 62.7106C80.6323 62.8556 80.1249 62.928 79.5814 62.928C78.7479 62.928 78.0232 62.765 77.4434 62.4388C76.8455 62.1127 76.4288 61.6416 76.157 61.0437C75.9214 60.5183 75.8127 59.9023 75.8127 59.1775C75.8127 58.8151 75.849 58.4709 75.9033 58.1629C75.9577 57.8549 76.0483 57.5831 76.1751 57.3113C76.4469 56.7134 76.8636 56.2423 77.4434 55.9162C78.0051 55.5901 78.6936 55.427 79.4908 55.427C80.288 55.427 80.9765 55.5901 81.5382 55.9162C82.0998 56.2423 82.5166 56.7134 82.7884 57.3113C82.9333 57.6374 83.042 57.9817 83.0964 58.3441C83.1507 58.7064 83.1688 59.1413 83.1688 59.6305H77.4615C77.4977 60.0653 77.5702 60.3915 77.6789 60.6451C77.8239 60.9712 78.0594 61.2249 78.3856 61.4061C78.7117 61.5873 79.1103 61.6779 79.5814 61.6779C79.8894 61.6779 80.1793 61.6416 80.4329 61.5692C80.6866 61.4967 80.904 61.388 81.0671 61.2249C81.1939 61.1162 81.3026 60.9712 81.3751 60.8082L81.3389 60.7719ZM77.6427 57.7462C77.5521 57.9636 77.4796 58.181 77.4615 58.4347H81.4838C81.4476 58.181 81.3932 57.9273 81.3026 57.6918C81.1396 57.3657 80.9221 57.1301 80.6141 56.9671C80.3061 56.804 79.9437 56.7134 79.4908 56.7134C78.5667 56.7134 77.9688 57.0577 77.6427 57.7462Z" fill="#121212"/>
<path d="M88.9848 55.5901V57.0215C88.7673 56.9671 88.5318 56.949 88.26 56.949C87.644 56.949 87.1729 57.1302 86.8468 57.5107C86.5388 57.8912 86.3757 58.4347 86.3757 59.1414V62.7651H84.7632V55.6082H86.3757V56.4417C86.7924 55.8257 87.4266 55.4995 88.2782 55.4995C88.568 55.4995 88.8036 55.5358 89.0029 55.5901H88.9848Z" fill="#121212"/>
<path d="M96.2504 56.1699C96.7215 56.6591 96.9571 57.3839 96.9571 58.3442V62.7651H95.3445V58.6703C95.3445 58.0361 95.2177 57.5651 94.9459 57.257C94.6741 56.949 94.2755 56.8041 93.732 56.8041C93.1522 56.8041 92.7173 56.9672 92.4093 57.2933C92.1013 57.6194 91.9564 58.1086 91.9564 58.7428V62.7651H90.3438V55.6083H91.9564V56.4055C92.4456 55.7351 93.1884 55.409 94.1849 55.409C95.0546 55.409 95.7431 55.6626 96.2142 56.1518L96.2504 56.1699Z" fill="#121212"/>
<path d="M105.309 62.747H103.697V61.9497C103.189 62.602 102.356 62.9281 101.251 62.9281C100.617 62.9281 100.091 62.8194 99.6382 62.6201C99.1852 62.4208 98.8953 62.1128 98.7141 61.7142C98.5873 61.4243 98.5148 61.1163 98.5148 60.7539C98.5148 60.3915 98.5692 60.0835 98.696 59.8118C98.9315 59.2682 99.3483 58.9058 99.9462 58.7065C100.544 58.5072 101.287 58.3985 102.211 58.3985H103.697V58.2173C103.697 58.0361 103.697 57.8731 103.66 57.7644C103.624 57.6557 103.606 57.5107 103.552 57.3839C103.334 56.9128 102.845 56.6773 102.066 56.6773C101.667 56.6773 101.341 56.7316 101.088 56.8403C100.834 56.949 100.653 57.1121 100.544 57.3476C100.472 57.5288 100.435 57.6919 100.435 57.8368H98.8047C98.8047 57.4201 98.8772 57.0759 99.004 56.8041C99.4208 55.8619 100.435 55.409 102.048 55.409C102.845 55.409 103.479 55.5177 103.968 55.7532C104.458 55.9888 104.82 56.3511 105.019 56.8403C105.219 57.2752 105.309 57.8368 105.309 58.5435V62.747ZM103.697 59.6849V59.5943H102.302C101.758 59.5943 101.323 59.6306 100.979 59.7212C100.635 59.8118 100.399 59.9748 100.29 60.2104C100.236 60.3191 100.2 60.464 100.2 60.6271C100.2 60.7902 100.236 60.9351 100.29 61.0619C100.381 61.2612 100.562 61.4243 100.798 61.5149C101.033 61.6055 101.323 61.6598 101.667 61.6598C102.139 61.6598 102.519 61.5693 102.827 61.4062C103.135 61.2431 103.371 60.9895 103.516 60.6814C103.624 60.3915 103.697 60.0654 103.697 59.6849Z" fill="#121212"/>
<path d="M108.1 62.3302C107.737 61.9678 107.574 61.3699 107.574 60.5546V56.9309H106.469V55.6082H107.574V53.887H109.187V55.6082H111.216V56.9309H109.187V60.2647C109.187 60.6995 109.277 61.0075 109.459 61.2068C109.64 61.4061 109.912 61.5148 110.292 61.5148C110.6 61.5148 110.89 61.4786 111.162 61.4061V62.7469C110.709 62.8375 110.256 62.8919 109.821 62.8919C109.042 62.8919 108.48 62.7107 108.118 62.3483L108.1 62.3302Z" fill="#121212"/>
<path d="M112.757 54.2675C112.576 54.1044 112.485 53.887 112.485 53.6152C112.485 53.3434 112.576 53.126 112.757 52.9448C112.938 52.7818 113.174 52.6912 113.482 52.6912C113.771 52.6912 113.989 52.7818 114.17 52.9448C114.351 53.1079 114.424 53.3434 114.424 53.6152C114.424 53.887 114.333 54.0863 114.152 54.2675C113.971 54.4306 113.753 54.5212 113.482 54.5212C113.192 54.5212 112.956 54.4306 112.775 54.2675H112.757ZM112.648 55.6083H114.261V62.7651H112.648V55.6083Z" fill="#121212"/>
<path d="M117.485 62.4208C116.923 62.0766 116.507 61.6055 116.235 61.0076C115.999 60.4821 115.872 59.8842 115.872 59.1776C115.872 58.471 115.999 57.855 116.235 57.3295C116.507 56.7316 116.923 56.2605 117.485 55.9163C118.047 55.572 118.735 55.409 119.551 55.409C120.366 55.409 121.054 55.572 121.634 55.9163C122.196 56.2605 122.631 56.7316 122.902 57.3295C123.138 57.8731 123.265 58.4891 123.265 59.1776C123.265 59.8661 123.138 60.4459 122.902 61.0257C122.631 61.6236 122.214 62.0947 121.634 62.4389C121.073 62.7832 120.366 62.9463 119.551 62.9463C118.735 62.9463 118.047 62.7832 117.485 62.4389V62.4208ZM120.674 61.3156C120.964 61.1344 121.199 60.8807 121.344 60.5727C121.489 60.2466 121.562 59.7755 121.562 59.1957C121.562 58.6159 121.489 58.1449 121.344 57.8187C121.199 57.4926 120.982 57.2389 120.674 57.0577C120.366 56.8766 120.004 56.786 119.569 56.786C119.134 56.786 118.771 56.8766 118.482 57.0577C118.192 57.2389 117.974 57.4926 117.829 57.8187C117.666 58.163 117.594 58.6159 117.594 59.1957C117.594 59.7755 117.666 60.2104 117.829 60.5727C117.974 60.8989 118.192 61.1525 118.482 61.3156C118.771 61.4968 119.134 61.5874 119.569 61.5874C120.004 61.5874 120.366 61.4968 120.674 61.3156Z" fill="#121212"/>
<path d="M130.766 56.1699C131.237 56.6591 131.472 57.3839 131.472 58.3442V62.7651H129.86V58.6703C129.86 58.0361 129.733 57.5651 129.461 57.257C129.19 56.949 128.791 56.8041 128.247 56.8041C127.668 56.8041 127.233 56.9672 126.925 57.2933C126.617 57.6194 126.472 58.1086 126.472 58.7428V62.7651H124.859V55.6083H126.472V56.4055C126.961 55.7351 127.704 55.409 128.7 55.409C129.57 55.409 130.259 55.6626 130.73 56.1518L130.766 56.1699Z" fill="#121212"/>
<path d="M139.826 62.747H138.213V61.9497C137.706 62.602 136.872 62.9281 135.767 62.9281C135.133 62.9281 134.607 62.8194 134.154 62.6201C133.701 62.4208 133.412 62.1128 133.23 61.7142C133.104 61.4243 133.031 61.1163 133.031 60.7539C133.031 60.3915 133.085 60.0835 133.212 59.8118C133.448 59.2682 133.865 58.9058 134.462 58.7065C135.06 58.5072 135.803 58.3985 136.727 58.3985H138.213V58.2173C138.213 58.0361 138.213 57.8731 138.177 57.7644C138.141 57.6557 138.122 57.5107 138.068 57.3839C137.851 56.9128 137.361 56.6773 136.582 56.6773C136.184 56.6773 135.858 56.7316 135.604 56.8403C135.35 56.949 135.169 57.1121 135.06 57.3476C134.988 57.5288 134.952 57.6919 134.952 57.8368H133.321C133.321 57.4201 133.393 57.0759 133.52 56.8041C133.937 55.8619 134.952 55.409 136.564 55.409C137.361 55.409 137.996 55.5177 138.485 55.7532C138.974 55.9888 139.336 56.3511 139.536 56.8403C139.735 57.2752 139.826 57.8368 139.826 58.5435V62.747ZM138.213 59.6849V59.5943H136.818C136.274 59.5943 135.839 59.6306 135.495 59.7212C135.151 59.8118 134.915 59.9748 134.807 60.2104C134.752 60.3191 134.716 60.464 134.716 60.6271C134.716 60.7902 134.752 60.9351 134.807 61.0619C134.897 61.2612 135.078 61.4243 135.314 61.5149C135.55 61.6055 135.839 61.6598 136.184 61.6598C136.655 61.6598 137.035 61.5693 137.343 61.4062C137.651 61.2431 137.887 60.9895 138.032 60.6814C138.141 60.3915 138.213 60.0654 138.213 59.6849Z" fill="#121212"/>
<path d="M141.728 52.4556H143.34V62.7651H141.728V52.4556Z" fill="#121212"/>
<path d="M148.504 52.4556H154.864V53.9051H150.189V56.8041H154.81V58.2717H150.189V61.3156H154.864V62.7651H148.504V52.4556Z" fill="#121212"/>
<path d="M163.524 52.4556V62.765H161.948V61.8953C161.676 62.2396 161.332 62.4932 160.933 62.6744C160.535 62.8556 160.082 62.9462 159.574 62.9462C158.868 62.9462 158.27 62.7831 157.781 62.4751C157.291 62.1671 156.911 61.7323 156.657 61.1525C156.53 60.8626 156.44 60.5546 156.367 60.2284C156.295 59.9023 156.259 59.5399 156.259 59.1776C156.259 58.4347 156.386 57.7824 156.657 57.1845C156.911 56.6229 157.291 56.188 157.781 55.8619C158.27 55.5357 158.868 55.3908 159.574 55.3908C160.064 55.3908 160.517 55.4814 160.915 55.6445C161.314 55.8075 161.658 56.0612 161.93 56.3873V52.4194H163.542L163.524 52.4556ZM161.93 58.9964C161.93 58.2898 161.749 57.7462 161.404 57.3657C161.06 56.9852 160.589 56.804 159.973 56.804C159.556 56.804 159.194 56.8946 158.886 57.0577C158.578 57.2208 158.36 57.4744 158.197 57.8187C158.034 58.181 157.962 58.6521 157.962 59.1957C157.962 59.7392 158.034 60.1922 158.197 60.5546C158.36 60.8988 158.578 61.1525 158.886 61.3337C159.194 61.5149 159.556 61.6054 159.973 61.6054C160.571 61.6054 161.042 61.4061 161.404 61.0257C161.749 60.6452 161.93 60.1016 161.93 59.3769V58.9964Z" fill="#121212"/>
<path d="M172.04 55.6082V62.765H170.428V61.9497C169.939 62.6201 169.196 62.9643 168.199 62.9643C167.33 62.9643 166.641 62.7107 166.17 62.2215C165.681 61.7323 165.445 61.0075 165.445 60.0473V55.6264H167.058V59.7211C167.058 60.3553 167.185 60.8264 167.457 61.1344C167.728 61.4424 168.127 61.5873 168.652 61.5873C169.232 61.5873 169.667 61.4243 169.975 61.0981C170.283 60.772 170.428 60.2828 170.428 59.6487V55.6264H172.04V55.6082Z" fill="#121212"/>
<path d="M175.265 62.4389C174.704 62.1128 174.269 61.6417 173.997 61.0438C173.761 60.5184 173.653 59.9023 173.653 59.1776C173.653 58.4529 173.761 57.8368 173.997 57.3114C174.287 56.6954 174.704 56.2243 175.265 55.8982C175.827 55.572 176.515 55.409 177.294 55.409C177.838 55.409 178.309 55.4814 178.744 55.6264C179.179 55.7713 179.541 55.9888 179.867 56.2605C180.139 56.5142 180.357 56.8041 180.501 57.1483C180.646 57.4926 180.737 57.855 180.755 58.2717H179.016C178.979 57.8187 178.835 57.4564 178.527 57.1846C178.382 57.0577 178.2 56.9671 177.983 56.8947C177.766 56.8222 177.53 56.786 177.276 56.786C176.878 56.786 176.533 56.8766 176.244 57.0577C175.954 57.2389 175.736 57.4745 175.591 57.7825C175.428 58.1267 175.356 58.5978 175.356 59.1776C175.356 59.4675 175.374 59.7212 175.41 59.9386C175.446 60.156 175.501 60.3553 175.591 60.5546C175.736 60.8626 175.954 61.0982 176.244 61.2794C176.533 61.4424 176.878 61.533 177.276 61.533C177.548 61.533 177.784 61.4968 177.983 61.4243C178.2 61.3518 178.363 61.2612 178.508 61.1344C178.653 61.0076 178.762 60.8445 178.853 60.6633C178.943 60.4821 178.979 60.2828 178.998 60.0654H180.737C180.737 60.464 180.646 60.8264 180.501 61.1706C180.357 61.5149 180.139 61.8048 179.867 62.0584C179.541 62.3302 179.161 62.5476 178.726 62.6926C178.291 62.8375 177.802 62.91 177.276 62.91C176.479 62.91 175.809 62.747 175.247 62.4208L175.265 62.4389Z" fill="#121212"/>
<path d="M188.836 62.747H187.223V61.9497C186.716 62.602 185.882 62.9281 184.777 62.9281C184.143 62.9281 183.618 62.8194 183.165 62.6201C182.712 62.4208 182.422 62.1128 182.241 61.7142C182.114 61.4243 182.041 61.1163 182.041 60.7539C182.041 60.3915 182.096 60.0835 182.222 59.8118C182.458 59.2682 182.875 58.9058 183.473 58.7065C184.071 58.5072 184.813 58.3985 185.737 58.3985H187.223V58.2173C187.223 58.0361 187.223 57.8731 187.187 57.7644C187.151 57.6557 187.133 57.5107 187.078 57.3839C186.861 56.9128 186.372 56.6773 185.593 56.6773C185.194 56.6773 184.868 56.7316 184.614 56.8403C184.36 56.949 184.179 57.1121 184.071 57.3476C183.998 57.5288 183.962 57.6919 183.962 57.8368H182.331C182.331 57.4201 182.404 57.0759 182.531 56.8041C182.947 55.8619 183.962 55.409 185.574 55.409C186.372 55.409 187.006 55.5177 187.495 55.7532C187.984 55.9888 188.347 56.3511 188.546 56.8403C188.745 57.2752 188.836 57.8368 188.836 58.5435V62.747ZM187.205 59.6849V59.5943H185.81C185.266 59.5943 184.832 59.6306 184.487 59.7212C184.143 59.8118 183.908 59.9748 183.799 60.2104C183.744 60.3191 183.708 60.464 183.708 60.6271C183.708 60.7902 183.744 60.9351 183.799 61.0619C183.889 61.2612 184.071 61.4243 184.306 61.5149C184.542 61.6055 184.832 61.6598 185.176 61.6598C185.647 61.6598 186.027 61.5693 186.335 61.4062C186.643 61.2431 186.879 60.9895 187.024 60.6814C187.133 60.3915 187.205 60.0654 187.205 59.6849Z" fill="#121212"/>
<path d="M191.608 62.3302C191.245 61.9678 191.082 61.3699 191.082 60.5546V56.9309H189.977V55.6082H191.082V53.887H192.695V55.6082H194.724V56.9309H192.695V60.2647C192.695 60.6995 192.785 61.0075 192.967 61.2068C193.148 61.4061 193.42 61.5148 193.8 61.5148C194.108 61.5148 194.398 61.4786 194.67 61.4061V62.7469C194.217 62.8375 193.764 62.8919 193.329 62.8919C192.55 62.8919 191.988 62.7107 191.626 62.3483L191.608 62.3302Z" fill="#121212"/>
<path d="M196.282 54.2675C196.101 54.1044 196.011 53.887 196.011 53.6152C196.011 53.3434 196.101 53.126 196.282 52.9448C196.464 52.7818 196.699 52.6912 197.007 52.6912C197.297 52.6912 197.514 52.7818 197.696 52.9448C197.877 53.1079 197.949 53.3434 197.949 53.6152C197.949 53.887 197.859 54.0863 197.678 54.2675C197.496 54.4306 197.279 54.5212 197.007 54.5212C196.717 54.5212 196.482 54.4306 196.301 54.2675H196.282ZM196.156 55.6083H197.768V62.7651H196.156V55.6083Z" fill="#121212"/>
<path d="M201.012 62.4208C200.45 62.0766 200.033 61.6055 199.761 61.0076C199.526 60.4821 199.399 59.8842 199.399 59.1776C199.399 58.471 199.526 57.855 199.761 57.3295C200.033 56.7316 200.45 56.2605 201.012 55.9163C201.573 55.572 202.262 55.409 203.077 55.409C203.892 55.409 204.581 55.572 205.161 55.9163C205.722 56.2605 206.157 56.7316 206.429 57.3295C206.664 57.8731 206.791 58.4891 206.791 59.1776C206.791 59.8661 206.664 60.4459 206.429 61.0257C206.157 61.6236 205.74 62.0947 205.161 62.4389C204.599 62.7832 203.892 62.9463 203.077 62.9463C202.262 62.9463 201.573 62.7832 201.012 62.4389V62.4208ZM204.182 61.3156C204.472 61.1344 204.708 60.8807 204.853 60.5727C204.998 60.2466 205.07 59.7755 205.07 59.1957C205.07 58.6159 204.998 58.1449 204.853 57.8187C204.708 57.4926 204.49 57.2389 204.182 57.0577C203.874 56.8766 203.512 56.786 203.077 56.786C202.642 56.786 202.28 56.8766 201.99 57.0577C201.7 57.2389 201.483 57.4926 201.338 57.8187C201.175 58.163 201.102 58.6159 201.102 59.1957C201.102 59.7755 201.175 60.2104 201.338 60.5727C201.483 60.8989 201.7 61.1525 201.99 61.3156C202.28 61.4968 202.642 61.5874 203.077 61.5874C203.512 61.5874 203.874 61.4968 204.182 61.3156Z" fill="#121212"/>
<path d="M214.275 56.1699C214.746 56.6591 214.981 57.3839 214.981 58.3442V62.7651H213.369V58.6703C213.369 58.0361 213.242 57.5651 212.97 57.257C212.698 56.949 212.3 56.8041 211.756 56.8041C211.176 56.8041 210.742 56.9672 210.433 57.2933C210.125 57.6194 209.981 58.1086 209.981 58.7428V62.7651H208.368V55.6083H209.981V56.4055C210.47 55.7351 211.213 55.409 212.209 55.409C213.079 55.409 213.767 55.6626 214.238 56.1518L214.275 56.1699Z" fill="#121212"/>
</svg>
