<svg width="230" height="49" viewBox="0 0 230 49" fill="none" xmlns="http://www.w3.org/2000/svg">
<path d="M57.81 26.8663H22.896C22.5525 26.1548 22.3562 25.3451 22.3562 24.4864C22.3562 23.6277 22.5525 22.818 22.896 22.1065H57.81C57.9081 20.757 58.0554 19.4321 58.3007 18.1317H20.8105C19.2893 19.8247 18.3815 22.0574 18.3815 24.5109C18.3815 26.9645 19.3138 29.1972 20.8105 30.8902H58.3007C58.0554 29.5898 57.9081 28.2649 57.81 26.9154" fill="black"/>
<path d="M63.7478 44.3601H11.8062C7.43891 38.9132 4.81361 31.9942 4.81361 24.4618C4.81361 16.9295 7.43891 10.0104 11.8062 4.56357H63.7478C64.6802 3.16505 65.7107 1.84014 66.8393 0.588827H9.96606C4.29837 6.91898 0.838867 15.2856 0.838867 24.4618C0.838867 33.6381 4.29837 42.0047 9.96606 48.3349H66.8393C65.7107 47.0835 64.6802 45.7586 63.7478 44.3601Z" fill="black"/>
<path d="M59.5028 35.6009H17.3017C14.9954 32.4849 13.6214 28.6328 13.6214 24.4618C13.6214 20.2908 14.9954 16.4142 17.3263 13.2982H59.5273C59.9689 11.9242 60.5087 10.5993 61.0976 9.32341H15.388C11.7813 13.3472 9.5976 18.6469 9.5976 24.4618C9.5976 30.2767 11.7813 35.5764 15.3634 39.5756H61.0485C60.4596 38.2998 59.9199 36.9504 59.4782 35.6009" fill="black"/>
<path d="M83.818 47.3289C82.3458 46.4457 81.2417 45.1944 80.5302 43.5505C79.8432 42.0293 79.4997 40.1646 79.4997 37.9809C79.4997 35.7973 79.8432 33.9571 80.5302 32.3868C81.2663 30.7675 82.3704 29.5162 83.8425 28.6329C85.3146 27.7496 87.1303 27.308 89.2648 27.308C90.5898 27.308 91.8165 27.5043 92.9452 27.8968C94.0493 28.2894 95.0307 28.8537 95.8404 29.5898C96.601 30.2523 97.1898 31.0865 97.6069 32.0433C98.024 33.0002 98.2694 34.0552 98.2939 35.1839H94.8099C94.7363 33.7118 94.221 32.534 93.2887 31.6508C92.2582 30.7184 90.8842 30.2522 89.1912 30.2522C87.8909 30.2522 86.7622 30.5221 85.879 31.0865C84.9711 31.6262 84.2841 32.4114 83.818 33.4173C83.5726 34.0062 83.3763 34.6932 83.2537 35.4292C83.131 36.1653 83.0574 37.024 83.0574 37.9809C83.0574 38.9378 83.1064 39.8211 83.2291 40.5571C83.3518 41.2932 83.5481 41.9557 83.818 42.5445C84.2841 43.575 84.9711 44.3356 85.879 44.8754C86.7868 45.4152 87.8909 45.6851 89.1912 45.6851C90.05 45.6851 90.8351 45.5624 91.5712 45.317C92.2827 45.0717 92.8961 44.7282 93.3868 44.2865C94.3192 43.4278 94.8344 42.2501 94.8835 40.7044H98.3675C98.3675 41.8575 98.1222 42.9126 97.7296 43.8694C97.3125 44.8263 96.7236 45.6605 95.9876 46.3475C95.1779 47.1081 94.1965 47.6724 93.0678 48.0405C91.9392 48.433 90.6879 48.6293 89.3385 48.6293C87.1793 48.6293 85.3637 48.1877 83.8916 47.3044L83.818 47.3289Z" fill="black"/>
<path d="M103.839 47.5008C102.711 46.8383 101.901 45.8814 101.361 44.7037C100.871 43.6732 100.65 42.471 100.65 41.097C100.65 39.723 100.895 38.4962 101.361 37.4658C101.901 36.2635 102.735 35.3312 103.839 34.6687C104.968 34.0063 106.318 33.6628 107.937 33.6628C109.556 33.6628 110.93 34.0063 112.059 34.6687C113.187 35.3312 114.022 36.2881 114.561 37.4658C115.052 38.5453 115.273 39.7476 115.273 41.097C115.273 42.4465 115.028 43.6242 114.561 44.7283C114.022 45.9305 113.187 46.8628 112.059 47.5253C110.93 48.1878 109.556 48.5313 107.937 48.5313C106.318 48.5313 104.944 48.1878 103.839 47.5253V47.5008ZM110.121 45.2926C110.709 44.9245 111.151 44.4338 111.445 43.7959C111.74 43.1334 111.887 42.2256 111.887 41.0725C111.887 39.9193 111.74 38.987 111.445 38.349C111.151 37.6866 110.709 37.1959 110.121 36.8524C109.532 36.5089 108.796 36.3371 107.937 36.3371C107.078 36.3371 106.342 36.5089 105.778 36.8524C105.189 37.1959 104.772 37.7111 104.477 38.349C104.158 39.0115 104.011 39.9193 104.011 41.0725C104.011 42.2256 104.158 43.0844 104.477 43.7959C104.772 44.4338 105.189 44.9245 105.778 45.2926C106.367 45.6606 107.078 45.8324 107.937 45.8324C108.796 45.8324 109.532 45.6606 110.121 45.2926Z" fill="black"/>
<path d="M129.43 35.1103C130.362 36.0917 130.853 37.5393 130.853 39.404V48.1632H127.688V40.042C127.688 38.7661 127.418 37.8338 126.903 37.2449C126.387 36.6561 125.578 36.3616 124.498 36.3616C123.37 36.3616 122.486 36.6806 121.897 37.3185C121.309 37.9564 120.99 38.9133 120.99 40.1892V48.1632H117.776V34.0062H120.99V35.601C121.971 34.3007 123.443 33.6382 125.406 33.6382C127.148 33.6382 128.473 34.1289 129.43 35.1103Z" fill="black"/>
<path d="M136.079 47.329C135.368 46.6175 135.024 45.4398 135.024 43.8204V36.6561H132.841V34.0308H135.024V28.2895H138.189V34.0308H142.213V36.6561H138.189V43.2316C138.189 44.0903 138.361 44.7037 138.729 45.0963C139.097 45.4888 139.637 45.6851 140.398 45.6851C141.011 45.6851 141.575 45.6115 142.091 45.4643V48.1141C141.183 48.3104 140.299 48.4086 139.441 48.4086C137.895 48.4086 136.766 48.0405 136.079 47.329Z" fill="black"/>
<path d="M148.37 34.0307H145.156V48.1877H148.37V34.0307Z" fill="black"/>
<path d="M163.387 35.1103C164.32 36.0917 164.81 37.5393 164.81 39.404V48.1632H161.645V40.042C161.645 38.7661 161.375 37.8338 160.86 37.2449C160.345 36.6561 159.535 36.3616 158.456 36.3616C157.327 36.3616 156.444 36.6806 155.855 37.3185C155.266 37.9564 154.972 38.9133 154.972 40.1892V48.1632H151.757V34.0062H154.972V35.601C155.953 34.3007 157.425 33.6382 159.388 33.6382C161.13 33.6382 162.455 34.1289 163.412 35.1103H163.387Z" fill="black"/>
<path d="M178.328 44.2375C178.5 43.9186 178.598 43.5751 178.623 43.2561H181.788C181.665 44.6792 181.101 45.8569 180.12 46.7892C179.482 47.3535 178.721 47.7706 177.813 48.0651C176.905 48.3595 175.924 48.5067 174.844 48.5067C173.176 48.5067 171.777 48.1877 170.624 47.5253C169.471 46.8628 168.612 45.955 168.073 44.7528C167.606 43.7223 167.386 42.471 167.386 41.0479C167.386 40.3118 167.435 39.6494 167.557 39.0605C167.68 38.4717 167.852 37.9074 168.073 37.3921C168.612 36.1899 169.447 35.2821 170.575 34.6196C171.704 33.9572 173.053 33.6382 174.624 33.6382C176.194 33.6382 177.543 33.9572 178.672 34.6196C179.801 35.2821 180.61 36.1899 181.15 37.3676C181.444 38.03 181.641 38.717 181.739 39.4286C181.837 40.1401 181.886 40.9988 181.886 41.9803H170.6C170.649 42.839 170.796 43.5015 171.041 43.9676C171.336 44.6301 171.802 45.1208 172.44 45.4643C173.078 45.8078 173.863 45.9795 174.82 45.9795C175.433 45.9795 175.998 45.9059 176.488 45.7587C176.979 45.6115 177.396 45.3907 177.74 45.0963C177.985 44.8754 178.206 44.581 178.353 44.2621L178.328 44.2375ZM171.041 38.2754C170.845 38.6925 170.722 39.1587 170.673 39.6249H178.623C178.574 39.1341 178.451 38.6434 178.279 38.1527C177.96 37.5148 177.519 37.0241 176.93 36.7051C176.341 36.3862 175.58 36.2144 174.697 36.2144C172.882 36.2144 171.679 36.9014 171.066 38.2754H171.041Z" fill="black"/>
<path d="M196.239 35.1103C197.172 36.0917 197.662 37.5393 197.662 39.404V48.1632H194.497V40.042C194.497 38.7661 194.227 37.8338 193.712 37.2449C193.197 36.6561 192.387 36.3616 191.308 36.3616C190.179 36.3616 189.296 36.6806 188.707 37.3185C188.118 37.9564 187.824 38.9133 187.824 40.1892V48.1632H184.61V34.0062H187.824V35.601C188.805 34.3007 190.277 33.6382 192.24 33.6382C193.982 33.6382 195.307 34.1289 196.264 35.1103H196.239Z" fill="black"/>
<path d="M202.889 47.329C202.178 46.6175 201.834 45.4398 201.834 43.8204V36.6561H199.651V34.0308H201.834V28.2895H204.999V34.0308H209.023V36.6561H204.999V43.2316C204.999 44.0903 205.171 44.7037 205.539 45.0963C205.907 45.4888 206.447 45.6851 207.208 45.6851C207.821 45.6851 208.385 45.6115 208.901 45.4643V48.1141C207.993 48.3104 207.109 48.4086 206.251 48.4086C204.705 48.4086 203.576 48.0405 202.889 47.329Z" fill="black"/>
<path d="M224.283 39.8947V48.1877H221.069V46.5929C220.039 47.8933 218.419 48.5312 216.211 48.5312C214.96 48.5312 213.905 48.3349 213.021 47.9178C212.163 47.5253 211.549 46.9119 211.206 46.1268C210.96 45.5624 210.838 44.9245 210.838 44.213C210.838 43.5015 210.961 42.8881 211.181 42.3728C211.672 41.3178 212.482 40.5817 213.635 40.1892C214.788 39.7966 216.285 39.6003 218.1 39.6003H221.045V39.2323C221.045 38.8643 221.045 38.5698 220.996 38.3245C220.946 38.0791 220.873 37.8338 220.775 37.5884C220.358 36.6561 219.376 36.1899 217.83 36.1899C217.045 36.1899 216.407 36.288 215.892 36.5089C215.401 36.7297 215.033 37.0486 214.813 37.5148C214.69 37.8583 214.616 38.1773 214.616 38.4717H211.378C211.378 37.662 211.5 36.975 211.77 36.4107C212.604 34.5705 214.592 33.6382 217.781 33.6382C219.352 33.6382 220.603 33.859 221.584 34.3252C222.566 34.7914 223.253 35.5029 223.67 36.4843C224.062 37.3431 224.259 38.4472 224.259 39.8702L224.283 39.8947ZM221.069 42.0784V41.9067H218.321C217.266 41.9067 216.383 42.0048 215.696 42.1765C215.009 42.3483 214.543 42.6673 214.346 43.1334C214.224 43.3542 214.175 43.6241 214.175 43.9431C214.175 44.2621 214.224 44.5319 214.346 44.8018C214.543 45.1944 214.886 45.5134 215.352 45.6851C215.843 45.8814 216.407 45.9795 217.045 45.9795C217.978 45.9795 218.738 45.8078 219.352 45.4888C219.965 45.1699 220.431 44.6792 220.701 44.0412C220.922 43.4769 221.045 42.839 221.045 42.0784H221.069Z" fill="black"/>
<path d="M226.786 28.2649H230V48.1632H226.786V28.2649Z" fill="black"/>
<path d="M146.752 31.9207C147.795 31.9207 148.641 31.0749 148.641 30.0315C148.641 28.9881 147.795 28.1423 146.752 28.1423C145.709 28.1423 144.863 28.9881 144.863 30.0315C144.863 31.0749 145.709 31.9207 146.752 31.9207Z" fill="black"/>
<path d="M80.1131 0H92.6507V2.84611H83.4254V8.58742H92.5771V11.4581H83.4254V17.4938H92.6507V20.3399H80.1131V0Z" fill="black"/>
<path d="M97.3123 20.0946C96.3554 19.6284 95.6684 18.9414 95.2513 18.0091C94.9323 17.3466 94.7851 16.5369 94.7851 15.6536H97.9011C97.9011 16.1934 97.9993 16.6351 98.1956 17.0031C98.6127 17.9354 99.5205 18.3771 100.944 18.3771C102.367 18.3771 103.201 18.0091 103.544 17.273C103.642 17.0276 103.691 16.7823 103.691 16.5615C103.691 16.2916 103.642 16.0462 103.544 15.8009C103.397 15.5064 103.201 15.2856 102.882 15.1139C102.587 14.9421 102.219 14.7949 101.778 14.6722C101.336 14.5495 100.747 14.4023 99.9376 14.2551C98.858 14.0098 97.9502 13.6663 97.1896 13.2492C96.429 12.8321 95.9138 12.2677 95.5703 11.5317C95.374 11.09 95.2758 10.5748 95.2758 9.98595C95.2758 9.34803 95.3985 8.78371 95.6193 8.31754C95.9874 7.5324 96.6253 6.91902 97.5331 6.47738C98.4409 6.03574 99.5205 5.83946 100.796 5.83946C102.072 5.83946 103.176 6.06028 104.06 6.47738C104.943 6.89448 105.605 7.5324 105.998 8.34207C106.243 8.93093 106.366 9.61792 106.366 10.4276H103.348C103.348 10.0105 103.274 9.61792 103.127 9.24989C102.931 8.85732 102.636 8.56289 102.219 8.36661C101.802 8.17033 101.312 8.07218 100.723 8.07218C99.545 8.07218 98.8089 8.39114 98.49 9.02907C98.4164 9.20082 98.3673 9.42164 98.3673 9.69153C98.3673 9.93688 98.4164 10.1332 98.49 10.2558C98.6372 10.5748 98.858 10.8202 99.2015 11.0164C99.545 11.2127 99.913 11.3599 100.306 11.4581C100.698 11.5562 101.287 11.7034 102.048 11.8752C103.25 12.1941 104.207 12.5376 104.967 12.9547C105.728 13.3718 106.292 13.9362 106.636 14.6722C106.832 15.1139 106.93 15.6536 106.93 16.267C106.93 16.9295 106.808 17.5674 106.587 18.1317C106.194 18.9905 105.458 19.6529 104.428 20.1191C103.397 20.5607 102.195 20.8061 100.821 20.8061C99.4469 20.8061 98.2201 20.5853 97.2632 20.1191L97.3123 20.0946Z" fill="black"/>
<path d="M112.034 19.751C110.929 19.1131 110.071 18.1807 109.531 17.003C109.065 15.9725 108.844 14.7458 108.844 13.3227C108.844 11.8996 109.065 10.6729 109.531 9.64238C110.095 8.44014 110.929 7.50779 112.034 6.86987C113.138 6.23195 114.487 5.91298 116.033 5.91298C117.088 5.91298 118.045 6.0602 118.903 6.35462C119.762 6.64905 120.498 7.06615 121.112 7.63047C121.651 8.12118 122.069 8.71003 122.387 9.37249C122.706 10.0349 122.854 10.771 122.878 11.5807H119.443C119.394 10.6974 119.075 9.98587 118.486 9.42156C118.192 9.1762 117.848 8.97992 117.407 8.85724C116.965 8.73456 116.524 8.66096 116.033 8.66096C115.248 8.66096 114.561 8.83271 113.996 9.1762C113.408 9.5197 112.99 10.0104 112.696 10.6238C112.377 11.3108 112.23 12.2431 112.23 13.3963C112.23 13.9606 112.279 14.4759 112.352 14.9175C112.426 15.3591 112.549 15.7517 112.696 16.1443C112.99 16.7577 113.408 17.2238 113.996 17.5673C114.561 17.9108 115.248 18.0826 116.033 18.0826C116.548 18.0826 117.014 18.009 117.456 17.8863C117.873 17.7636 118.216 17.5673 118.486 17.322C118.781 17.0766 119.002 16.7577 119.173 16.3896C119.345 16.0216 119.419 15.629 119.443 15.2119H122.878C122.878 15.9971 122.706 16.7331 122.412 17.3956C122.118 18.058 121.7 18.6469 121.161 19.1621C120.523 19.7019 119.787 20.119 118.903 20.4134C118.045 20.7079 117.088 20.8551 116.057 20.8551C114.512 20.8551 113.162 20.5361 112.058 19.8982L112.034 19.751Z" fill="black"/>
<path d="M138.41 6.23196V20.3644H135.245V18.745C134.263 20.07 132.791 20.7324 130.828 20.7324C129.086 20.7324 127.761 20.2417 126.804 19.2603C125.848 18.2789 125.381 16.8558 125.381 14.9666V6.23196H128.546V14.3287C128.546 15.6045 128.816 16.5369 129.332 17.1257C129.871 17.7146 130.657 18.009 131.712 18.009C132.84 18.009 133.723 17.69 134.312 17.0276C134.926 16.3651 135.22 15.4328 135.22 14.1815V6.23196H138.41Z" fill="black"/>
<path d="M151.952 16.4388C152.124 16.1198 152.222 15.7763 152.247 15.4574H155.412C155.289 16.8804 154.725 18.0581 153.743 18.9659C153.106 19.5302 152.345 19.9474 151.437 20.2418C150.529 20.5362 149.548 20.6834 148.468 20.6834C146.824 20.6834 145.401 20.3645 144.248 19.702C143.095 19.0395 142.236 18.1317 141.697 16.9295C141.23 15.899 141.01 14.6722 141.01 13.2492C141.01 12.5131 141.059 11.8506 141.181 11.2618C141.304 10.6729 141.476 10.1086 141.697 9.59338C142.236 8.39114 143.071 7.48333 144.199 6.82087C145.328 6.15842 146.677 5.83946 148.248 5.83946C149.818 5.83946 151.167 6.15842 152.296 6.82087C153.425 7.48333 154.234 8.39114 154.749 9.56885C155.044 10.2313 155.24 10.8938 155.338 11.6053C155.436 12.3168 155.486 13.151 155.486 14.1324H144.199C144.248 14.9912 144.395 15.6536 144.641 16.1198C144.935 16.7823 145.401 17.273 146.015 17.6165C146.653 17.96 147.438 18.1317 148.37 18.1317C148.984 18.1317 149.548 18.0581 150.039 17.9109C150.529 17.7637 150.946 17.5429 151.29 17.2485C151.535 17.0276 151.756 16.7332 151.903 16.4142L151.952 16.4388ZM144.665 10.4767C144.469 10.8938 144.346 11.3599 144.297 11.8261H152.222C152.173 11.3354 152.051 10.8447 151.879 10.354C151.56 9.71606 151.118 9.24989 150.529 8.90639C149.94 8.58743 149.18 8.41568 148.297 8.41568C146.481 8.41568 145.279 9.10267 144.665 10.4521V10.4767Z" fill="black"/>
<path d="M158.111 1.73729e-06H161.301V20.3644H158.111V1.73729e-06Z" fill="black"/>
<path d="M177.347 20.3399H174.158V18.7451C173.127 20.021 171.533 20.6834 169.324 20.6834C168.073 20.6834 167.018 20.4871 166.159 20.07C165.301 19.6775 164.687 19.0641 164.344 18.2789C164.098 17.7146 163.976 17.0767 163.976 16.3652C163.976 15.6536 164.098 15.0403 164.319 14.525C164.81 13.47 165.62 12.7339 166.773 12.3414C167.926 11.9488 169.423 11.7525 171.238 11.7525H174.182V11.3845C174.182 11.0164 174.182 10.722 174.133 10.4767C174.084 10.2313 174.011 9.98595 173.913 9.7406C173.495 8.80825 172.514 8.36661 170.968 8.36661C170.183 8.36661 169.545 8.46475 169.03 8.68557C168.539 8.90639 168.171 9.22535 167.95 9.69153C167.803 10.035 167.754 10.354 167.754 10.6484H164.515C164.515 9.83874 164.638 9.15174 164.908 8.61196C165.742 6.7718 167.73 5.83946 170.895 5.83946C172.465 5.83946 173.716 6.06028 174.698 6.52645C175.679 6.99262 176.366 7.70415 176.783 8.68557C177.176 9.51978 177.347 10.6484 177.347 12.0469V20.3399ZM174.133 14.2797V14.1079H171.385C170.33 14.1079 169.447 14.2061 168.76 14.3778C168.073 14.5495 167.607 14.8685 167.411 15.3347C167.288 15.5555 167.239 15.8254 167.239 16.1444C167.239 16.4633 167.288 16.7332 167.411 17.0031C167.607 17.3957 167.926 17.7146 168.417 17.8864C168.907 18.0827 169.472 18.1808 170.11 18.1808C171.042 18.1808 171.802 18.009 172.416 17.6901C173.029 17.3711 173.471 16.8804 173.765 16.2425C173.986 15.6782 174.109 15.0403 174.109 14.2797H174.133Z" fill="black"/>
</svg>
