<svg width="459" height="42" viewBox="0 0 459 42" fill="none" xmlns="http://www.w3.org/2000/svg">
<rect width="265.668" height="40.6682" transform="translate(0 0.564941)" fill="#D714E6"/>
<path d="M20.858 29.783C19.098 29.783 17.626 29.423 16.442 28.703C15.258 27.983 14.378 26.967 13.802 25.655C13.21 24.375 12.914 22.799 12.914 20.927C12.914 19.103 13.21 17.527 13.802 16.199C14.378 14.887 15.258 13.871 16.442 13.151C17.626 12.431 19.098 12.071 20.858 12.071C21.962 12.071 22.962 12.231 23.858 12.551C24.77 12.855 25.554 13.311 26.21 13.919C26.818 14.463 27.29 15.127 27.626 15.911C27.962 16.679 28.146 17.527 28.178 18.455H26.066C25.97 17.079 25.498 15.991 24.65 15.191C23.674 14.343 22.386 13.919 20.786 13.919C19.522 13.919 18.466 14.175 17.618 14.687C16.786 15.199 16.162 15.919 15.746 16.847C15.282 17.935 15.05 19.295 15.05 20.927C15.05 22.575 15.282 23.935 15.746 25.007C16.178 25.951 16.81 26.679 17.642 27.191C18.49 27.687 19.538 27.935 20.786 27.935C21.618 27.935 22.362 27.831 23.018 27.623C23.69 27.399 24.25 27.079 24.698 26.663C25.594 25.863 26.066 24.743 26.114 23.303H28.226C28.21 24.279 28.026 25.159 27.674 25.943C27.338 26.727 26.866 27.399 26.258 27.959C25.634 28.551 24.858 29.007 23.93 29.327C23.002 29.631 21.978 29.783 20.858 29.783ZM31.6949 15.647C31.2949 15.647 30.9749 15.543 30.7349 15.335C30.5109 15.111 30.3989 14.815 30.3989 14.447C30.3989 14.095 30.5189 13.807 30.7589 13.583C30.9989 13.359 31.3109 13.247 31.6949 13.247C32.0469 13.247 32.3429 13.359 32.5829 13.583C32.8229 13.807 32.9429 14.095 32.9429 14.447C32.9429 14.799 32.8229 15.087 32.5829 15.311C32.3429 15.535 32.0469 15.647 31.6949 15.647ZM30.7109 17.735H32.6309V29.399H30.7109V17.735ZM43.5093 27.215C43.7653 26.975 43.9733 26.695 44.1333 26.375C44.2933 26.039 44.3893 25.679 44.4213 25.295H46.3413C46.2453 26.511 45.7813 27.511 44.9493 28.295C44.4373 28.743 43.8293 29.087 43.1253 29.327C42.4213 29.551 41.6373 29.663 40.7733 29.663C39.4613 29.663 38.3413 29.399 37.4133 28.871C36.4853 28.343 35.8133 27.591 35.3973 26.615C34.9973 25.799 34.7973 24.783 34.7973 23.567C34.7973 22.943 34.8453 22.383 34.9413 21.887C35.0373 21.391 35.1893 20.927 35.3973 20.495C35.8293 19.535 36.4933 18.791 37.3893 18.263C38.2853 17.719 39.3653 17.447 40.6293 17.447C41.8933 17.447 42.9653 17.711 43.8453 18.239C44.7413 18.767 45.3973 19.495 45.8133 20.423C46.0373 20.935 46.1893 21.471 46.2693 22.031C46.3653 22.591 46.4133 23.247 46.4133 23.999H36.7413C36.7893 24.847 36.9333 25.543 37.1733 26.087C37.4613 26.727 37.9093 27.223 38.5173 27.575C39.1253 27.911 39.8693 28.079 40.7493 28.079C41.3253 28.079 41.8453 28.007 42.3093 27.863C42.7893 27.719 43.1893 27.503 43.5093 27.215ZM40.6533 19.055C38.9253 19.055 37.7653 19.727 37.1733 21.071C36.9813 21.519 36.8533 22.007 36.7893 22.535H44.4453C44.3813 21.943 44.2533 21.415 44.0613 20.951C43.7893 20.327 43.3653 19.855 42.7893 19.535C42.2133 19.215 41.5013 19.055 40.6533 19.055ZM53.6577 17.591C54.0737 17.591 54.4657 17.639 54.8337 17.735V19.463C54.4657 19.383 54.0737 19.343 53.6577 19.343C52.6177 19.343 51.8337 19.655 51.3057 20.279C50.7777 20.887 50.5137 21.767 50.5137 22.919V29.399H48.5937V17.735H50.4897V19.247C50.8097 18.719 51.2337 18.311 51.7617 18.023C52.2897 17.735 52.9217 17.591 53.6577 17.591ZM61.6265 17.591C62.0425 17.591 62.4345 17.639 62.8025 17.735V19.463C62.4345 19.383 62.0425 19.343 61.6265 19.343C60.5865 19.343 59.8025 19.655 59.2745 20.279C58.7465 20.887 58.4825 21.767 58.4825 22.919V29.399H56.5625V17.735H58.4585V19.247C58.7785 18.719 59.2025 18.311 59.7305 18.023C60.2585 17.735 60.8905 17.591 61.6265 17.591ZM72.3374 27.215C72.5934 26.975 72.8014 26.695 72.9614 26.375C73.1214 26.039 73.2174 25.679 73.2494 25.295H75.1694C75.0734 26.511 74.6094 27.511 73.7774 28.295C73.2654 28.743 72.6574 29.087 71.9534 29.327C71.2494 29.551 70.4654 29.663 69.6014 29.663C68.2894 29.663 67.1694 29.399 66.2414 28.871C65.3134 28.343 64.6414 27.591 64.2254 26.615C63.8254 25.799 63.6254 24.783 63.6254 23.567C63.6254 22.943 63.6734 22.383 63.7694 21.887C63.8654 21.391 64.0174 20.927 64.2254 20.495C64.6574 19.535 65.3214 18.791 66.2174 18.263C67.1134 17.719 68.1934 17.447 69.4574 17.447C70.7214 17.447 71.7934 17.711 72.6734 18.239C73.5694 18.767 74.2254 19.495 74.6414 20.423C74.8654 20.935 75.0174 21.471 75.0974 22.031C75.1934 22.591 75.2414 23.247 75.2414 23.999H65.5694C65.6174 24.847 65.7614 25.543 66.0014 26.087C66.2894 26.727 66.7374 27.223 67.3454 27.575C67.9534 27.911 68.6974 28.079 69.5774 28.079C70.1534 28.079 70.6734 28.007 71.1374 27.863C71.6174 27.719 72.0174 27.503 72.3374 27.215ZM69.4814 19.055C67.7534 19.055 66.5934 19.727 66.0014 21.071C65.8094 21.519 65.6814 22.007 65.6174 22.535H73.2734C73.2094 21.943 73.0814 21.415 72.8894 20.951C72.6174 20.327 72.1934 19.855 71.6174 19.535C71.0414 19.215 70.3294 19.055 69.4814 19.055ZM92.5344 12.455V29.399H90.6384V27.623C90.2064 28.295 89.6304 28.807 88.9104 29.159C88.1904 29.495 87.3744 29.663 86.4624 29.663C85.3424 29.663 84.3744 29.415 83.5584 28.919C82.7424 28.407 82.1264 27.695 81.7104 26.783C81.2944 25.855 81.0864 24.783 81.0864 23.567C81.0864 22.351 81.2944 21.279 81.7104 20.351C82.1264 19.423 82.7424 18.711 83.5584 18.215C84.3744 17.703 85.3424 17.447 86.4624 17.447C87.3584 17.447 88.1664 17.623 88.8864 17.975C89.6064 18.311 90.1824 18.807 90.6144 19.463V12.455H92.5344ZM90.6144 23.279C90.6144 22.399 90.4624 21.647 90.1584 21.023C89.8544 20.399 89.4224 19.927 88.8624 19.607C88.3184 19.287 87.6704 19.127 86.9184 19.127C86.1344 19.127 85.4544 19.295 84.8784 19.631C84.3024 19.967 83.8704 20.463 83.5824 21.119C83.2784 21.775 83.1264 22.591 83.1264 23.567C83.1264 24.511 83.2784 25.327 83.5824 26.015C83.8704 26.655 84.3024 27.151 84.8784 27.503C85.4544 27.839 86.1344 28.007 86.9184 28.007C87.6704 28.007 88.3184 27.847 88.8624 27.527C89.4224 27.207 89.8544 26.735 90.1584 26.111C90.4624 25.487 90.6144 24.735 90.6144 23.855V23.279ZM103.416 27.215C103.672 26.975 103.88 26.695 104.04 26.375C104.2 26.039 104.296 25.679 104.328 25.295H106.248C106.152 26.511 105.688 27.511 104.856 28.295C104.344 28.743 103.736 29.087 103.032 29.327C102.328 29.551 101.544 29.663 100.68 29.663C99.3675 29.663 98.2475 29.399 97.3195 28.871C96.3915 28.343 95.7195 27.591 95.3035 26.615C94.9035 25.799 94.7035 24.783 94.7035 23.567C94.7035 22.943 94.7515 22.383 94.8475 21.887C94.9435 21.391 95.0955 20.927 95.3035 20.495C95.7355 19.535 96.3995 18.791 97.2955 18.263C98.1915 17.719 99.2715 17.447 100.536 17.447C101.8 17.447 102.872 17.711 103.752 18.239C104.648 18.767 105.304 19.495 105.72 20.423C105.944 20.935 106.096 21.471 106.176 22.031C106.272 22.591 106.32 23.247 106.32 23.999H96.6475C96.6955 24.847 96.8395 25.543 97.0795 26.087C97.3675 26.727 97.8155 27.223 98.4235 27.575C99.0315 27.911 99.7755 28.079 100.656 28.079C101.232 28.079 101.752 28.007 102.216 27.863C102.696 27.719 103.096 27.503 103.416 27.215ZM100.56 19.055C98.8315 19.055 97.6715 19.727 97.0795 21.071C96.8875 21.519 96.7595 22.007 96.6955 22.535H104.352C104.288 21.943 104.16 21.415 103.968 20.951C103.696 20.327 103.272 19.855 102.696 19.535C102.12 19.215 101.408 19.055 100.56 19.055ZM113.796 15.647C113.396 15.647 113.076 15.543 112.836 15.335C112.612 15.111 112.5 14.815 112.5 14.447C112.5 14.095 112.62 13.807 112.86 13.583C113.1 13.359 113.412 13.247 113.796 13.247C114.148 13.247 114.444 13.359 114.684 13.583C114.924 13.807 115.044 14.095 115.044 14.447C115.044 14.799 114.924 15.087 114.684 15.311C114.444 15.535 114.148 15.647 113.796 15.647ZM112.812 17.735H114.732V29.399H112.812V17.735ZM123.331 17.447C124.787 17.447 125.891 17.863 126.643 18.695C127.411 19.511 127.795 20.727 127.795 22.343V29.399H125.875V22.703C125.875 21.471 125.627 20.567 125.131 19.991C124.635 19.415 123.875 19.127 122.851 19.127C121.763 19.127 120.923 19.439 120.331 20.063C119.755 20.687 119.467 21.591 119.467 22.775V29.399H117.547V17.735H119.467V19.319C120.267 18.071 121.555 17.447 123.331 17.447ZM134.66 29.711C133.508 29.711 132.556 29.527 131.804 29.159C131.052 28.775 130.516 28.215 130.196 27.479C129.94 26.919 129.812 26.255 129.812 25.487H131.708C131.708 26.015 131.796 26.455 131.972 26.807C132.372 27.735 133.276 28.199 134.684 28.199C135.372 28.199 135.94 28.103 136.388 27.911C136.852 27.719 137.164 27.431 137.324 27.047C137.436 26.759 137.492 26.503 137.492 26.279C137.492 26.007 137.444 25.775 137.348 25.583C137.22 25.311 137.012 25.095 136.724 24.935C136.452 24.759 136.124 24.623 135.74 24.527C135.372 24.415 134.844 24.287 134.156 24.143C133.212 23.935 132.428 23.671 131.804 23.351C131.18 23.015 130.74 22.559 130.484 21.983C130.324 21.615 130.244 21.199 130.244 20.735C130.244 20.239 130.34 19.799 130.532 19.415C130.804 18.791 131.284 18.311 131.972 17.975C132.676 17.623 133.532 17.447 134.54 17.447C135.58 17.447 136.452 17.623 137.156 17.975C137.86 18.311 138.364 18.815 138.668 19.487C138.892 19.951 139.004 20.527 139.004 21.215H137.156C137.156 20.815 137.076 20.439 136.916 20.087C136.74 19.687 136.444 19.391 136.028 19.199C135.612 18.991 135.108 18.887 134.516 18.887C133.924 18.887 133.436 18.975 133.052 19.151C132.684 19.327 132.428 19.575 132.284 19.895C132.188 20.103 132.14 20.335 132.14 20.591C132.14 20.815 132.18 21.007 132.26 21.167C132.388 21.439 132.604 21.663 132.908 21.839C133.212 22.015 133.54 22.159 133.892 22.271C134.244 22.367 134.756 22.487 135.428 22.631C136.452 22.871 137.276 23.159 137.9 23.495C138.524 23.815 138.972 24.271 139.244 24.863C139.404 25.231 139.484 25.655 139.484 26.135C139.484 26.679 139.388 27.167 139.196 27.599C138.892 28.287 138.34 28.815 137.54 29.183C136.74 29.535 135.78 29.711 134.66 29.711ZM146.729 29.663C145.497 29.663 144.433 29.407 143.537 28.895C142.641 28.367 141.977 27.623 141.545 26.663C141.161 25.767 140.969 24.735 140.969 23.567C140.969 22.383 141.161 21.359 141.545 20.495C141.977 19.519 142.633 18.767 143.513 18.239C144.409 17.711 145.481 17.447 146.729 17.447C148.377 17.447 149.697 17.895 150.689 18.791C151.121 19.191 151.457 19.663 151.697 20.207C151.953 20.751 152.089 21.351 152.105 22.007H150.041C149.977 21.159 149.673 20.463 149.129 19.919C148.841 19.663 148.489 19.471 148.073 19.343C147.673 19.199 147.225 19.127 146.729 19.127C145.945 19.127 145.273 19.303 144.713 19.655C144.169 19.991 143.753 20.471 143.465 21.095C143.177 21.719 143.033 22.543 143.033 23.567C143.033 24.575 143.177 25.399 143.465 26.039C143.753 26.647 144.169 27.127 144.713 27.479C145.273 27.815 145.945 27.983 146.729 27.983C147.241 27.983 147.697 27.919 148.097 27.791C148.513 27.647 148.857 27.447 149.129 27.191C149.401 26.951 149.609 26.655 149.753 26.303C149.913 25.951 150.001 25.567 150.017 25.151H152.105C152.025 26.479 151.561 27.543 150.713 28.343C150.233 28.775 149.649 29.103 148.961 29.327C148.289 29.551 147.545 29.663 146.729 29.663ZM159.361 17.591C159.777 17.591 160.169 17.639 160.537 17.735V19.463C160.169 19.383 159.777 19.343 159.361 19.343C158.321 19.343 157.537 19.655 157.009 20.279C156.481 20.887 156.217 21.767 156.217 22.919V29.399H154.297V17.735H156.193V19.247C156.513 18.719 156.937 18.311 157.465 18.023C157.993 17.735 158.625 17.591 159.361 17.591ZM163.25 15.647C162.85 15.647 162.53 15.543 162.29 15.335C162.066 15.111 161.954 14.815 161.954 14.447C161.954 14.095 162.074 13.807 162.314 13.583C162.554 13.359 162.866 13.247 163.25 13.247C163.602 13.247 163.898 13.359 164.138 13.583C164.378 13.807 164.498 14.095 164.498 14.447C164.498 14.799 164.378 15.087 164.138 15.311C163.898 15.535 163.602 15.647 163.25 15.647ZM162.266 17.735H164.186V29.399H162.266V17.735ZM177.8 20.351C178.216 21.279 178.424 22.351 178.424 23.567C178.424 24.783 178.216 25.855 177.8 26.783C177.384 27.695 176.768 28.407 175.952 28.919C175.152 29.415 174.184 29.663 173.048 29.663C172.152 29.663 171.344 29.495 170.624 29.159C169.92 28.823 169.352 28.327 168.92 27.671V34.247H167V17.735H168.872V19.535C169.304 18.847 169.872 18.327 170.576 17.975C171.296 17.623 172.12 17.447 173.048 17.447C174.184 17.447 175.152 17.703 175.952 18.215C176.768 18.711 177.384 19.423 177.8 20.351ZM175.928 26.015C176.232 25.327 176.384 24.511 176.384 23.567C176.384 22.591 176.232 21.775 175.928 21.119C175.64 20.463 175.208 19.967 174.632 19.631C174.072 19.295 173.4 19.127 172.616 19.127C171.864 19.127 171.208 19.287 170.648 19.607C170.088 19.927 169.656 20.399 169.352 21.023C169.048 21.647 168.896 22.399 168.896 23.279V23.855C168.896 24.735 169.048 25.487 169.352 26.111C169.656 26.735 170.088 27.207 170.648 27.527C171.208 27.847 171.864 28.007 172.616 28.007C173.4 28.007 174.072 27.839 174.632 27.503C175.208 27.151 175.64 26.655 175.928 26.015ZM185.799 29.663C184.567 29.663 183.503 29.407 182.607 28.895C181.711 28.367 181.047 27.623 180.615 26.663C180.231 25.767 180.039 24.735 180.039 23.567C180.039 22.383 180.231 21.359 180.615 20.495C181.047 19.519 181.703 18.767 182.583 18.239C183.479 17.711 184.551 17.447 185.799 17.447C187.447 17.447 188.767 17.895 189.759 18.791C190.191 19.191 190.527 19.663 190.767 20.207C191.023 20.751 191.159 21.351 191.175 22.007H189.111C189.047 21.159 188.743 20.463 188.199 19.919C187.911 19.663 187.559 19.471 187.143 19.343C186.743 19.199 186.295 19.127 185.799 19.127C185.015 19.127 184.343 19.303 183.783 19.655C183.239 19.991 182.823 20.471 182.535 21.095C182.247 21.719 182.103 22.543 182.103 23.567C182.103 24.575 182.247 25.399 182.535 26.039C182.823 26.647 183.239 27.127 183.783 27.479C184.343 27.815 185.015 27.983 185.799 27.983C186.311 27.983 186.767 27.919 187.167 27.791C187.583 27.647 187.927 27.447 188.199 27.191C188.471 26.951 188.679 26.655 188.823 26.303C188.983 25.951 189.071 25.567 189.087 25.151H191.175C191.095 26.479 190.631 27.543 189.783 28.343C189.303 28.775 188.719 29.103 188.031 29.327C187.359 29.551 186.615 29.663 185.799 29.663ZM194.351 15.647C193.951 15.647 193.631 15.543 193.391 15.335C193.167 15.111 193.055 14.815 193.055 14.447C193.055 14.095 193.175 13.807 193.415 13.583C193.655 13.359 193.967 13.247 194.351 13.247C194.703 13.247 194.999 13.359 195.239 13.583C195.479 13.807 195.599 14.095 195.599 14.447C195.599 14.799 195.479 15.087 195.239 15.311C194.999 15.535 194.703 15.647 194.351 15.647ZM193.367 17.735H195.287V29.399H193.367V17.735ZM203.286 29.687C202.006 29.687 200.918 29.415 200.022 28.871C199.142 28.327 198.486 27.575 198.054 26.615C197.654 25.751 197.454 24.735 197.454 23.567C197.454 22.431 197.654 21.415 198.054 20.519C198.486 19.559 199.142 18.807 200.022 18.263C200.918 17.719 202.006 17.447 203.286 17.447C204.566 17.447 205.646 17.719 206.526 18.263C207.422 18.807 208.086 19.559 208.518 20.519C208.918 21.447 209.118 22.463 209.118 23.567C209.118 24.671 208.918 25.687 208.518 26.615C208.086 27.575 207.422 28.327 206.526 28.871C205.646 29.415 204.566 29.687 203.286 29.687ZM203.286 28.007C204.118 28.007 204.814 27.839 205.374 27.503C205.934 27.151 206.358 26.663 206.646 26.039C206.934 25.399 207.078 24.575 207.078 23.567C207.078 22.543 206.934 21.719 206.646 21.095C206.358 20.471 205.934 19.991 205.374 19.655C204.814 19.303 204.118 19.127 203.286 19.127C202.454 19.127 201.75 19.303 201.174 19.655C200.614 19.991 200.198 20.471 199.926 21.095C199.638 21.719 199.494 22.543 199.494 23.567C199.494 24.575 199.638 25.399 199.926 26.039C200.214 26.663 200.638 27.151 201.198 27.503C201.758 27.839 202.454 28.007 203.286 28.007ZM217.081 17.447C218.537 17.447 219.641 17.863 220.393 18.695C221.161 19.511 221.545 20.727 221.545 22.343V29.399H219.625V22.703C219.625 21.471 219.377 20.567 218.881 19.991C218.385 19.415 217.625 19.127 216.601 19.127C215.513 19.127 214.673 19.439 214.081 20.063C213.505 20.687 213.217 21.591 213.217 22.775V29.399H211.297V17.735H213.217V19.319C214.017 18.071 215.305 17.447 217.081 17.447ZM232.322 27.215C232.578 26.975 232.786 26.695 232.946 26.375C233.106 26.039 233.202 25.679 233.234 25.295H235.154C235.058 26.511 234.594 27.511 233.762 28.295C233.25 28.743 232.642 29.087 231.938 29.327C231.234 29.551 230.45 29.663 229.586 29.663C228.274 29.663 227.154 29.399 226.226 28.871C225.298 28.343 224.626 27.591 224.21 26.615C223.81 25.799 223.61 24.783 223.61 23.567C223.61 22.943 223.658 22.383 223.754 21.887C223.85 21.391 224.002 20.927 224.21 20.495C224.642 19.535 225.306 18.791 226.202 18.263C227.098 17.719 228.178 17.447 229.442 17.447C230.706 17.447 231.778 17.711 232.658 18.239C233.554 18.767 234.21 19.495 234.626 20.423C234.85 20.935 235.002 21.471 235.082 22.031C235.178 22.591 235.226 23.247 235.226 23.999H225.554C225.602 24.847 225.746 25.543 225.986 26.087C226.274 26.727 226.722 27.223 227.33 27.575C227.938 27.911 228.682 28.079 229.562 28.079C230.138 28.079 230.658 28.007 231.122 27.863C231.602 27.719 232.002 27.503 232.322 27.215ZM229.466 19.055C227.738 19.055 226.578 19.727 225.986 21.071C225.794 21.519 225.666 22.007 225.602 22.535H233.258C233.194 21.943 233.066 21.415 232.874 20.951C232.602 20.327 232.178 19.855 231.602 19.535C231.026 19.215 230.314 19.055 229.466 19.055ZM241.558 29.711C240.406 29.711 239.454 29.527 238.702 29.159C237.95 28.775 237.414 28.215 237.094 27.479C236.838 26.919 236.71 26.255 236.71 25.487H238.606C238.606 26.015 238.694 26.455 238.87 26.807C239.27 27.735 240.174 28.199 241.582 28.199C242.27 28.199 242.838 28.103 243.286 27.911C243.75 27.719 244.062 27.431 244.222 27.047C244.334 26.759 244.39 26.503 244.39 26.279C244.39 26.007 244.342 25.775 244.246 25.583C244.118 25.311 243.91 25.095 243.622 24.935C243.35 24.759 243.022 24.623 242.638 24.527C242.27 24.415 241.742 24.287 241.054 24.143C240.11 23.935 239.326 23.671 238.702 23.351C238.078 23.015 237.638 22.559 237.382 21.983C237.222 21.615 237.142 21.199 237.142 20.735C237.142 20.239 237.238 19.799 237.43 19.415C237.702 18.791 238.182 18.311 238.87 17.975C239.574 17.623 240.43 17.447 241.438 17.447C242.478 17.447 243.35 17.623 244.054 17.975C244.758 18.311 245.262 18.815 245.566 19.487C245.79 19.951 245.902 20.527 245.902 21.215H244.054C244.054 20.815 243.974 20.439 243.814 20.087C243.638 19.687 243.342 19.391 242.926 19.199C242.51 18.991 242.006 18.887 241.414 18.887C240.822 18.887 240.334 18.975 239.95 19.151C239.582 19.327 239.326 19.575 239.182 19.895C239.086 20.103 239.038 20.335 239.038 20.591C239.038 20.815 239.078 21.007 239.158 21.167C239.286 21.439 239.502 21.663 239.806 21.839C240.11 22.015 240.438 22.159 240.79 22.271C241.142 22.367 241.654 22.487 242.326 22.631C243.35 22.871 244.174 23.159 244.798 23.495C245.422 23.815 245.87 24.271 246.142 24.863C246.302 25.231 246.382 25.655 246.382 26.135C246.382 26.679 246.286 27.167 246.094 27.599C245.79 28.287 245.238 28.815 244.438 29.183C243.638 29.535 242.678 29.711 241.558 29.711ZM250.295 29.735C249.895 29.735 249.567 29.623 249.311 29.399C249.071 29.159 248.951 28.839 248.951 28.439C248.951 28.039 249.071 27.719 249.311 27.479C249.567 27.239 249.895 27.119 250.295 27.119C250.695 27.119 251.015 27.239 251.255 27.479C251.511 27.719 251.639 28.039 251.639 28.439C251.639 28.839 251.511 29.159 251.255 29.399C251.015 29.623 250.695 29.735 250.295 29.735ZM250.295 21.095C249.895 21.095 249.567 20.983 249.311 20.759C249.071 20.519 248.951 20.199 248.951 19.799C248.951 19.399 249.071 19.079 249.311 18.839C249.567 18.599 249.895 18.479 250.295 18.479C250.695 18.479 251.015 18.599 251.255 18.839C251.511 19.079 251.639 19.399 251.639 19.799C251.639 20.199 251.511 20.519 251.255 20.759C251.015 20.983 250.695 21.095 250.295 21.095Z" fill="white"/>
<rect width="192.668" height="40.6682" transform="translate(265.668 0.564941)" fill="#6400BE"/>
<path d="M291.59 25.079H289.07V29.399H287.102V25.079H277.454V24.983L285.47 12.455H289.07V23.351H291.59V25.079ZM287.102 23.351V13.247H287.078L280.67 23.351H287.102ZM308.421 12.455V29.399H306.525V27.623C306.093 28.295 305.517 28.807 304.797 29.159C304.077 29.495 303.261 29.663 302.349 29.663C301.229 29.663 300.261 29.415 299.445 28.919C298.629 28.407 298.013 27.695 297.597 26.783C297.181 25.855 296.973 24.783 296.973 23.567C296.973 22.351 297.181 21.279 297.597 20.351C298.013 19.423 298.629 18.711 299.445 18.215C300.261 17.703 301.229 17.447 302.349 17.447C303.245 17.447 304.053 17.623 304.773 17.975C305.493 18.311 306.069 18.807 306.501 19.463V12.455H308.421ZM306.501 23.279C306.501 22.399 306.349 21.647 306.045 21.023C305.741 20.399 305.309 19.927 304.749 19.607C304.205 19.287 303.557 19.127 302.805 19.127C302.021 19.127 301.341 19.295 300.765 19.631C300.189 19.967 299.757 20.463 299.469 21.119C299.165 21.775 299.013 22.591 299.013 23.567C299.013 24.511 299.165 25.327 299.469 26.015C299.757 26.655 300.189 27.151 300.765 27.503C301.341 27.839 302.021 28.007 302.805 28.007C303.557 28.007 304.205 27.847 304.749 27.527C305.309 27.207 305.741 26.735 306.045 26.111C306.349 25.487 306.501 24.735 306.501 23.855V23.279ZM319.302 27.215C319.558 26.975 319.766 26.695 319.926 26.375C320.086 26.039 320.182 25.679 320.214 25.295H322.134C322.038 26.511 321.574 27.511 320.742 28.295C320.23 28.743 319.622 29.087 318.918 29.327C318.214 29.551 317.43 29.663 316.566 29.663C315.254 29.663 314.134 29.399 313.206 28.871C312.278 28.343 311.606 27.591 311.19 26.615C310.79 25.799 310.59 24.783 310.59 23.567C310.59 22.943 310.638 22.383 310.734 21.887C310.83 21.391 310.982 20.927 311.19 20.495C311.622 19.535 312.286 18.791 313.182 18.263C314.078 17.719 315.158 17.447 316.422 17.447C317.686 17.447 318.758 17.711 319.638 18.239C320.534 18.767 321.19 19.495 321.606 20.423C321.83 20.935 321.982 21.471 322.062 22.031C322.158 22.591 322.206 23.247 322.206 23.999H312.534C312.582 24.847 312.726 25.543 312.966 26.087C313.254 26.727 313.702 27.223 314.31 27.575C314.918 27.911 315.662 28.079 316.542 28.079C317.118 28.079 317.638 28.007 318.102 27.863C318.582 27.719 318.982 27.503 319.302 27.215ZM316.446 19.055C314.718 19.055 313.558 19.727 312.966 21.071C312.774 21.519 312.646 22.007 312.582 22.535H320.238C320.174 21.943 320.046 21.415 319.854 20.951C319.582 20.327 319.158 19.855 318.582 19.535C318.006 19.215 317.294 19.055 316.446 19.055ZM332.851 29.711C331.699 29.711 330.747 29.527 329.995 29.159C329.243 28.775 328.707 28.215 328.387 27.479C328.131 26.919 328.003 26.255 328.003 25.487H329.899C329.899 26.015 329.987 26.455 330.163 26.807C330.563 27.735 331.467 28.199 332.875 28.199C333.563 28.199 334.131 28.103 334.579 27.911C335.043 27.719 335.355 27.431 335.515 27.047C335.627 26.759 335.683 26.503 335.683 26.279C335.683 26.007 335.635 25.775 335.539 25.583C335.411 25.311 335.203 25.095 334.915 24.935C334.643 24.759 334.315 24.623 333.931 24.527C333.563 24.415 333.035 24.287 332.347 24.143C331.403 23.935 330.619 23.671 329.995 23.351C329.371 23.015 328.931 22.559 328.675 21.983C328.515 21.615 328.435 21.199 328.435 20.735C328.435 20.239 328.531 19.799 328.723 19.415C328.995 18.791 329.475 18.311 330.163 17.975C330.867 17.623 331.723 17.447 332.731 17.447C333.771 17.447 334.643 17.623 335.347 17.975C336.051 18.311 336.555 18.815 336.859 19.487C337.083 19.951 337.195 20.527 337.195 21.215H335.347C335.347 20.815 335.267 20.439 335.107 20.087C334.931 19.687 334.635 19.391 334.219 19.199C333.803 18.991 333.299 18.887 332.707 18.887C332.115 18.887 331.627 18.975 331.243 19.151C330.875 19.327 330.619 19.575 330.475 19.895C330.379 20.103 330.331 20.335 330.331 20.591C330.331 20.815 330.371 21.007 330.451 21.167C330.579 21.439 330.795 21.663 331.099 21.839C331.403 22.015 331.731 22.159 332.083 22.271C332.435 22.367 332.947 22.487 333.619 22.631C334.643 22.871 335.467 23.159 336.091 23.495C336.715 23.815 337.163 24.271 337.435 24.863C337.595 25.231 337.675 25.655 337.675 26.135C337.675 26.679 337.579 27.167 337.387 27.599C337.083 28.287 336.531 28.815 335.731 29.183C334.931 29.535 333.971 29.711 332.851 29.711ZM347.873 27.215C348.129 26.975 348.337 26.695 348.497 26.375C348.657 26.039 348.753 25.679 348.785 25.295H350.705C350.609 26.511 350.145 27.511 349.313 28.295C348.801 28.743 348.193 29.087 347.489 29.327C346.785 29.551 346.001 29.663 345.137 29.663C343.825 29.663 342.705 29.399 341.777 28.871C340.849 28.343 340.177 27.591 339.761 26.615C339.361 25.799 339.161 24.783 339.161 23.567C339.161 22.943 339.209 22.383 339.305 21.887C339.401 21.391 339.553 20.927 339.761 20.495C340.193 19.535 340.857 18.791 341.753 18.263C342.649 17.719 343.729 17.447 344.993 17.447C346.257 17.447 347.329 17.711 348.209 18.239C349.105 18.767 349.761 19.495 350.177 20.423C350.401 20.935 350.553 21.471 350.633 22.031C350.729 22.591 350.777 23.247 350.777 23.999H341.105C341.153 24.847 341.297 25.543 341.537 26.087C341.825 26.727 342.273 27.223 342.881 27.575C343.489 27.911 344.233 28.079 345.113 28.079C345.689 28.079 346.209 28.007 346.673 27.863C347.153 27.719 347.553 27.503 347.873 27.215ZM345.017 19.055C343.289 19.055 342.129 19.727 341.537 21.071C341.345 21.519 341.217 22.007 341.153 22.535H348.809C348.745 21.943 348.617 21.415 348.425 20.951C348.153 20.327 347.729 19.855 347.153 19.535C346.577 19.215 345.865 19.055 345.017 19.055ZM363.757 20.351C364.173 21.279 364.381 22.351 364.381 23.567C364.381 24.783 364.173 25.855 363.757 26.783C363.341 27.695 362.725 28.407 361.909 28.919C361.109 29.415 360.141 29.663 359.005 29.663C358.109 29.663 357.301 29.495 356.581 29.159C355.877 28.823 355.309 28.327 354.877 27.671V34.247H352.957V17.735H354.829V19.535C355.261 18.847 355.829 18.327 356.533 17.975C357.253 17.623 358.077 17.447 359.005 17.447C360.141 17.447 361.109 17.703 361.909 18.215C362.725 18.711 363.341 19.423 363.757 20.351ZM361.885 26.015C362.189 25.327 362.341 24.511 362.341 23.567C362.341 22.591 362.189 21.775 361.885 21.119C361.597 20.463 361.165 19.967 360.589 19.631C360.029 19.295 359.357 19.127 358.573 19.127C357.821 19.127 357.165 19.287 356.605 19.607C356.045 19.927 355.613 20.399 355.309 21.023C355.005 21.647 354.853 22.399 354.853 23.279V23.855C354.853 24.735 355.005 25.487 355.309 26.111C355.613 26.735 356.045 27.207 356.605 27.527C357.165 27.847 357.821 28.007 358.573 28.007C359.357 28.007 360.029 27.839 360.589 27.503C361.165 27.151 361.597 26.655 361.885 26.015ZM370.614 29.591C369.43 29.591 368.558 29.295 367.998 28.703C367.438 28.111 367.158 27.183 367.158 25.919V19.367H365.214V17.735H367.158V14.903H369.078V17.735H372.702V19.367H369.078V25.631C369.078 26.399 369.246 26.975 369.582 27.359C369.918 27.727 370.422 27.911 371.094 27.911C371.558 27.911 372.062 27.847 372.606 27.719V29.351C371.918 29.511 371.254 29.591 370.614 29.591ZM375.55 15.647C375.15 15.647 374.83 15.543 374.59 15.335C374.366 15.111 374.254 14.815 374.254 14.447C374.254 14.095 374.374 13.807 374.614 13.583C374.854 13.359 375.166 13.247 375.55 13.247C375.902 13.247 376.198 13.359 376.438 13.583C376.678 13.807 376.798 14.095 376.798 14.447C376.798 14.799 376.678 15.087 376.438 15.311C376.198 15.535 375.902 15.647 375.55 15.647ZM374.566 17.735H376.486V29.399H374.566V17.735ZM387.365 27.215C387.621 26.975 387.829 26.695 387.989 26.375C388.149 26.039 388.245 25.679 388.277 25.295H390.197C390.101 26.511 389.637 27.511 388.805 28.295C388.293 28.743 387.685 29.087 386.981 29.327C386.277 29.551 385.493 29.663 384.629 29.663C383.317 29.663 382.197 29.399 381.269 28.871C380.341 28.343 379.669 27.591 379.253 26.615C378.853 25.799 378.653 24.783 378.653 23.567C378.653 22.943 378.701 22.383 378.797 21.887C378.893 21.391 379.045 20.927 379.253 20.495C379.685 19.535 380.349 18.791 381.245 18.263C382.141 17.719 383.221 17.447 384.485 17.447C385.749 17.447 386.821 17.711 387.701 18.239C388.597 18.767 389.253 19.495 389.669 20.423C389.893 20.935 390.045 21.471 390.125 22.031C390.221 22.591 390.269 23.247 390.269 23.999H380.597C380.645 24.847 380.789 25.543 381.029 26.087C381.317 26.727 381.765 27.223 382.373 27.575C382.981 27.911 383.725 28.079 384.605 28.079C385.181 28.079 385.701 28.007 386.165 27.863C386.645 27.719 387.045 27.503 387.365 27.215ZM384.509 19.055C382.781 19.055 381.621 19.727 381.029 21.071C380.837 21.519 380.709 22.007 380.645 22.535H388.301C388.237 21.943 388.109 21.415 387.917 20.951C387.645 20.327 387.221 19.855 386.645 19.535C386.069 19.215 385.357 19.055 384.509 19.055ZM405.985 17.447C407.377 17.447 408.441 17.863 409.177 18.695C409.913 19.527 410.281 20.751 410.281 22.367V29.399H408.361V22.727C408.361 21.495 408.121 20.591 407.641 20.015C407.177 19.423 406.465 19.127 405.505 19.127C404.481 19.127 403.689 19.447 403.129 20.087C402.585 20.711 402.313 21.607 402.313 22.775V29.399H400.393V22.727C400.393 21.479 400.161 20.567 399.697 19.991C399.233 19.415 398.513 19.127 397.537 19.127C396.513 19.127 395.729 19.447 395.185 20.087C394.641 20.711 394.369 21.607 394.369 22.775V29.399H392.449V17.735H394.369V19.247C394.753 18.655 395.257 18.207 395.881 17.903C396.505 17.599 397.233 17.447 398.065 17.447C399.041 17.447 399.857 17.655 400.513 18.071C401.185 18.471 401.665 19.063 401.953 19.847C402.689 18.247 404.033 17.447 405.985 17.447ZM423.827 20.351C424.243 21.279 424.451 22.351 424.451 23.567C424.451 24.783 424.243 25.855 423.827 26.783C423.411 27.695 422.795 28.407 421.979 28.919C421.179 29.415 420.211 29.663 419.075 29.663C418.163 29.663 417.347 29.495 416.627 29.159C415.907 28.807 415.331 28.295 414.899 27.623V29.399H413.027V12.455H414.947V19.439C415.395 18.783 415.971 18.287 416.675 17.951C417.379 17.615 418.179 17.447 419.075 17.447C420.211 17.447 421.179 17.703 421.979 18.215C422.795 18.711 423.411 19.423 423.827 20.351ZM421.955 26.015C422.259 25.327 422.411 24.511 422.411 23.567C422.411 22.591 422.259 21.775 421.955 21.119C421.667 20.463 421.235 19.967 420.659 19.631C420.099 19.295 419.427 19.127 418.643 19.127C417.891 19.127 417.235 19.287 416.675 19.607C416.115 19.927 415.683 20.399 415.379 21.023C415.075 21.647 414.923 22.399 414.923 23.279V23.855C414.923 24.735 415.075 25.487 415.379 26.111C415.683 26.735 416.115 27.207 416.675 27.527C417.235 27.847 417.891 28.007 418.643 28.007C419.427 28.007 420.099 27.839 420.659 27.503C421.235 27.151 421.667 26.655 421.955 26.015ZM431.709 17.591C432.125 17.591 432.517 17.639 432.885 17.735V19.463C432.517 19.383 432.125 19.343 431.709 19.343C430.669 19.343 429.885 19.655 429.357 20.279C428.829 20.887 428.565 21.767 428.565 22.919V29.399H426.645V17.735H428.541V19.247C428.861 18.719 429.285 18.311 429.813 18.023C430.341 17.735 430.973 17.591 431.709 17.591ZM442.419 27.215C442.675 26.975 442.883 26.695 443.043 26.375C443.203 26.039 443.299 25.679 443.331 25.295H445.251C445.155 26.511 444.691 27.511 443.859 28.295C443.347 28.743 442.739 29.087 442.035 29.327C441.331 29.551 440.547 29.663 439.683 29.663C438.371 29.663 437.251 29.399 436.323 28.871C435.395 28.343 434.723 27.591 434.307 26.615C433.907 25.799 433.707 24.783 433.707 23.567C433.707 22.943 433.755 22.383 433.851 21.887C433.947 21.391 434.099 20.927 434.307 20.495C434.739 19.535 435.403 18.791 436.299 18.263C437.195 17.719 438.275 17.447 439.539 17.447C440.803 17.447 441.875 17.711 442.755 18.239C443.651 18.767 444.307 19.495 444.723 20.423C444.947 20.935 445.099 21.471 445.179 22.031C445.275 22.591 445.323 23.247 445.323 23.999H435.651C435.699 24.847 435.843 25.543 436.083 26.087C436.371 26.727 436.819 27.223 437.427 27.575C438.035 27.911 438.779 28.079 439.659 28.079C440.235 28.079 440.755 28.007 441.219 27.863C441.699 27.719 442.099 27.503 442.419 27.215ZM439.563 19.055C437.835 19.055 436.675 19.727 436.083 21.071C435.891 21.519 435.763 22.007 435.699 22.535H443.355C443.291 21.943 443.163 21.415 442.971 20.951C442.699 20.327 442.275 19.855 441.699 19.535C441.123 19.215 440.411 19.055 439.563 19.055Z" fill="white"/>
</svg>
