<svg width="230" height="49" viewBox="0 0 230 49" fill="none" xmlns="http://www.w3.org/2000/svg">
<path d="M56.9957 26.5965H22.0571C21.7137 25.8604 21.5174 25.0507 21.5174 24.2165C21.5174 23.3823 21.7137 22.5481 22.0571 21.8366H56.9957C57.0938 20.4871 57.241 19.1622 57.4864 17.8619H19.9716C18.4504 19.5548 17.5426 21.7875 17.5426 24.2411C17.5426 26.6946 18.475 28.9273 19.9716 30.6203H57.4864C57.241 29.3199 57.0938 27.995 56.9957 26.6455" fill="black"/>
<path d="M62.958 44.1148H10.9674C6.60004 38.6679 3.97475 31.7489 3.97475 24.2165C3.97475 16.6841 6.60004 9.7651 10.9674 4.31823H62.9335C63.8658 2.91971 64.8963 1.59479 66.025 0.343482H9.1272C3.4595 6.67363 0 15.0402 0 24.2165C0 33.3928 3.4595 41.7594 9.1272 48.1141H66.0495C64.9209 46.8627 63.8904 45.5378 62.958 44.1393" fill="black"/>
<path d="M58.689 35.3556H16.4635C14.1572 32.2396 12.7832 28.3875 12.7832 24.2165C12.7832 20.0455 14.1572 16.1689 16.488 13.0529H58.7136C59.1552 11.6789 59.695 10.354 60.2838 9.07811H14.5743C10.9675 13.1019 8.78389 18.4016 8.78389 24.2165C8.78389 30.0314 10.9675 35.3311 14.5743 39.3549H60.2838C59.695 38.079 59.1552 36.7296 58.7136 35.3801" fill="black"/>
<path d="M80.9916 18.8432C79.7157 17.6655 79.0778 15.8499 79.0778 13.3473V0.318936H82.3901V13.0774C82.3901 14.6231 82.7581 15.7517 83.4697 16.5123C84.1812 17.2484 85.3344 17.6164 86.9292 17.6164C88.524 17.6164 89.6281 17.2484 90.3641 16.5123C91.1002 15.7763 91.4682 14.6231 91.4682 13.0774V0.318936H94.7805V13.3473C94.7805 15.8254 94.1426 17.6655 92.8913 18.8432C91.64 20.0209 89.6281 20.6098 86.9292 20.6098C84.2303 20.6098 82.2429 20.0209 80.967 18.8432H80.9916Z" fill="black"/>
<path d="M109.87 7.04169C110.802 8.02311 111.293 9.4707 111.293 11.3599V20.1191H108.103V11.9979C108.103 10.722 107.833 9.78966 107.318 9.20081C106.803 8.61196 105.993 8.293 104.914 8.293C103.785 8.293 102.902 8.61196 102.313 9.24988C101.724 9.88781 101.405 10.8447 101.405 12.1205V20.0946H98.191V5.9376H101.405V7.5324C102.387 6.23202 103.859 5.56956 105.822 5.56956C107.564 5.56956 108.889 6.06027 109.845 7.04169H109.87Z" fill="black"/>
<path d="M117.599 5.93766H114.385V20.0946H117.599V5.93766Z" fill="black"/>
<path d="M119.463 5.93766H122.923L126.799 16.4879L130.651 5.93766H134.111L128.59 20.0946H125.008L119.463 5.93766Z" fill="black"/>
<path d="M145.691 16.1689C145.863 15.8499 145.961 15.5064 145.986 15.1875H149.176C149.053 16.6105 148.489 17.7882 147.507 18.7206C146.869 19.2849 146.109 19.702 145.201 19.9964C144.293 20.2908 143.312 20.4381 142.232 20.4381C140.564 20.4381 139.165 20.1191 137.987 19.4566C136.81 18.7942 135.975 17.8864 135.436 16.6841C134.969 15.6536 134.749 14.4023 134.749 12.9793C134.749 12.2432 134.798 11.5808 134.92 10.9919C135.043 10.4031 135.215 9.83874 135.436 9.32349C135.975 8.12125 136.81 7.21344 137.938 6.55098C139.067 5.88852 140.416 5.56956 142.011 5.56956C143.606 5.56956 144.955 5.88852 146.06 6.55098C147.188 7.21344 147.998 8.12125 148.538 9.29896C148.832 9.96141 149.028 10.6484 149.126 11.3599C149.225 12.0715 149.274 12.9302 149.274 13.9116H137.963C138.012 14.7704 138.159 15.4328 138.404 15.899C138.699 16.5615 139.165 17.0522 139.803 17.3957C140.441 17.7392 141.226 17.9109 142.183 17.9109C142.796 17.9109 143.361 17.8373 143.851 17.6901C144.342 17.5429 144.759 17.3221 145.103 17.0276C145.348 16.8068 145.569 16.5124 145.716 16.1934L145.691 16.1689ZM138.404 10.2068C138.208 10.6239 138.085 11.09 138.036 11.5562H145.986C145.937 11.0655 145.814 10.5748 145.642 10.0841C145.323 9.44617 144.882 8.95546 144.293 8.6365C143.704 8.31754 142.943 8.14579 142.06 8.14579C140.245 8.14579 139.042 8.83278 138.429 10.2068H138.404Z" fill="black"/>
<path d="M160.216 5.91308V8.73466C159.799 8.63652 159.309 8.58745 158.769 8.58745C157.542 8.58745 156.61 8.95548 155.972 9.69154C155.334 10.4276 155.039 11.5072 155.039 12.9057V20.07H151.825V5.93761H155.015V7.58149C155.849 6.35472 157.1 5.74133 158.769 5.74133C159.333 5.74133 159.799 5.7904 160.216 5.91308Z" fill="black"/>
<path d="M164.094 19.8492C163.137 19.383 162.45 18.696 162.033 17.7637C161.714 17.1012 161.566 16.2915 161.566 15.3837H164.682C164.682 15.9235 164.781 16.3651 164.977 16.7332C165.394 17.6655 166.326 18.1317 167.725 18.1317C169.123 18.1317 170.007 17.7637 170.326 17.0276C170.424 16.7823 170.473 16.5369 170.473 16.3161C170.473 16.0462 170.424 15.8008 170.326 15.5555C170.203 15.2611 169.982 15.0402 169.688 14.8685C169.393 14.6967 169.025 14.5495 168.584 14.4268C168.142 14.3042 167.528 14.157 166.743 14.0097C165.664 13.7644 164.756 13.4209 163.995 13.0038C163.235 12.5867 162.695 12.0224 162.376 11.2863C162.18 10.8447 162.082 10.3294 162.082 9.71603C162.082 9.07811 162.204 8.5138 162.425 8.04762C162.793 7.26249 163.431 6.6491 164.339 6.20746C165.247 5.76582 166.326 5.545 167.602 5.545C168.878 5.545 169.982 5.76582 170.89 6.18293C171.798 6.60003 172.436 7.23795 172.828 8.07216C173.074 8.66101 173.196 9.348 173.196 10.1577H170.154C170.154 9.74057 170.08 9.348 169.933 8.97997C169.737 8.5874 169.442 8.29298 169.025 8.09669C168.608 7.90041 168.117 7.80227 167.528 7.80227C166.351 7.80227 165.615 8.12123 165.296 8.75915C165.222 8.9309 165.173 9.15172 165.173 9.42161C165.173 9.66696 165.222 9.86325 165.296 10.0105C165.418 10.3294 165.664 10.5748 166.007 10.7711C166.351 10.9673 166.719 11.1146 167.111 11.2127C167.504 11.3108 168.093 11.4581 168.853 11.6298C170.056 11.9488 171.037 12.2923 171.798 12.7094C172.558 13.1265 173.123 13.6908 173.466 14.4268C173.662 14.8685 173.76 15.4083 173.76 16.0216C173.76 16.6841 173.638 17.322 173.417 17.9109C173.024 18.7696 172.288 19.4321 171.258 19.8983C170.227 20.3399 169.025 20.5852 167.627 20.5852C166.228 20.5852 165.001 20.3644 164.069 19.8983L164.094 19.8492Z" fill="black"/>
<path d="M179.477 5.93766H176.262V20.0946H179.477V5.93766Z" fill="black"/>
<path d="M196.382 0.318936V20.0945H193.266V18.4016C192.726 19.064 192.064 19.5793 191.254 19.9228C190.444 20.2663 189.561 20.438 188.555 20.438C187.156 20.438 185.979 20.1191 184.997 19.5057C184.016 18.8923 183.28 18.0335 182.765 16.9049C182.519 16.3406 182.323 15.7272 182.176 15.0648C182.053 14.4023 181.979 13.7153 181.979 13.0038C181.979 11.5316 182.249 10.2313 182.765 9.0781C183.255 7.94947 184.016 7.09073 184.997 6.47734C185.979 5.86395 187.156 5.54499 188.555 5.54499C189.536 5.54499 190.42 5.71674 191.205 6.06024C191.99 6.40373 192.652 6.89444 193.192 7.5569V0.318936H196.382ZM193.192 12.6603C193.192 11.2618 192.849 10.1822 192.162 9.4216C191.475 8.661 190.542 8.29296 189.34 8.29296C188.506 8.29296 187.794 8.46471 187.206 8.80821C186.617 9.15171 186.15 9.64242 185.856 10.3294C185.537 11.0655 185.39 11.9733 185.39 13.0528C185.39 14.1324 185.537 15.0157 185.856 15.7517C186.175 16.4142 186.617 16.9295 187.206 17.2729C187.794 17.6164 188.506 17.7882 189.34 17.7882C190.542 17.7882 191.475 17.4202 192.162 16.635C192.849 15.8744 193.192 14.7949 193.192 13.3718V12.6603Z" fill="black"/>
<path d="M212.379 20.0945H209.165V18.4997C208.135 19.8001 206.515 20.438 204.307 20.438C203.056 20.438 202.001 20.2418 201.117 19.8246C200.259 19.4321 199.645 18.8187 199.302 18.0336C199.057 17.4692 198.934 16.8313 198.934 16.1198C198.934 15.4083 199.057 14.7949 199.277 14.2796C199.768 13.2246 200.578 12.4885 201.731 12.096C202.884 11.7034 204.381 11.5071 206.221 11.5071H209.165V11.1391C209.165 10.7711 209.165 10.4766 209.116 10.2313C209.067 9.98592 208.993 9.74057 208.895 9.49522C208.478 8.56287 207.497 8.09669 205.951 8.09669C205.166 8.09669 204.528 8.19483 204.013 8.41565C203.522 8.63647 203.154 8.95543 202.933 9.42161C202.81 9.76511 202.737 10.0841 202.737 10.3785H199.498C199.498 9.56882 199.621 8.88183 199.891 8.31751C200.725 6.47735 202.712 5.545 205.902 5.545C207.472 5.545 208.723 5.76582 209.705 6.232C210.686 6.69817 211.373 7.4097 211.79 8.39112C212.183 9.24986 212.379 10.354 212.379 11.777V20.0945ZM209.165 14.0097V13.838H206.417C205.362 13.838 204.479 13.9361 203.792 14.1079C203.105 14.2796 202.639 14.5986 202.442 15.0648C202.32 15.2856 202.271 15.5555 202.271 15.8744C202.271 16.1934 202.32 16.4633 202.442 16.7332C202.639 17.1257 202.982 17.4447 203.448 17.641C203.939 17.8373 204.503 17.9354 205.141 17.9354C206.074 17.9354 206.834 17.7637 207.448 17.4447C208.061 17.1257 208.527 16.635 208.797 15.9971C209.018 15.4328 209.141 14.7949 209.141 14.0343L209.165 14.0097Z" fill="black"/>
<path d="M229.211 0.318936V20.0945H226.095V18.4016C225.555 19.064 224.893 19.5793 224.083 19.9228C223.274 20.2663 222.39 20.438 221.384 20.438C219.986 20.438 218.808 20.1191 217.827 19.5057C216.845 18.8923 216.109 18.0335 215.594 16.9049C215.349 16.3406 215.152 15.7272 215.005 15.0648C214.882 14.4023 214.809 13.7153 214.809 13.0038C214.809 11.5316 215.079 10.2313 215.594 9.0781C216.085 7.94947 216.845 7.09073 217.827 6.47734C218.808 5.86395 219.986 5.54499 221.384 5.54499C222.366 5.54499 223.249 5.71674 224.034 6.06024C224.819 6.40373 225.482 6.89444 226.022 7.5569V0.318936H229.211ZM226.022 12.6603C226.022 11.2618 225.678 10.1822 224.991 9.4216C224.304 8.661 223.372 8.29296 222.169 8.29296C221.335 8.29296 220.624 8.46471 220.035 8.80821C219.446 9.15171 218.98 9.64242 218.685 10.3294C218.366 11.0655 218.219 11.9733 218.219 13.0528C218.219 14.1324 218.366 15.0157 218.685 15.7517C219.004 16.4142 219.446 16.9295 220.035 17.2729C220.624 17.6164 221.335 17.7882 222.169 17.7882C223.372 17.7882 224.304 17.4202 224.991 16.635C225.678 15.8744 226.022 14.7949 226.022 13.3718V12.6603Z" fill="black"/>
<path d="M83.0283 47.1082C81.5561 46.2249 80.452 44.949 79.7405 43.3297C79.0535 41.8085 78.71 39.9438 78.71 37.7602C78.71 35.5765 79.0535 33.7363 79.7405 32.1661C80.4766 30.5467 81.5807 29.2954 83.0528 28.4121C84.5249 27.5289 86.3405 27.0872 88.4751 27.0872C89.8 27.0872 91.0268 27.2835 92.1555 27.6761C93.2841 28.0686 94.241 28.633 95.0506 29.369C95.8112 30.0315 96.4001 30.8657 96.8172 31.8226C97.2343 32.7795 97.4797 33.8345 97.5042 34.9631H94.0201C93.9465 33.491 93.4313 32.3133 92.499 31.43C91.4685 30.4977 90.0945 30.0315 88.4015 30.0315C87.1011 30.0315 85.9725 30.3014 85.0892 30.8657C84.1814 31.4055 83.4944 32.1906 83.0283 33.1966C82.7829 33.7854 82.5866 34.4724 82.4639 35.2085C82.3413 35.9445 82.2677 36.8033 82.2677 37.7602C82.2677 38.717 82.3167 39.6003 82.4394 40.3364C82.5621 41.0724 82.7584 41.7349 83.0283 42.3237C83.4944 43.3542 84.1814 44.1148 85.0892 44.6546C85.9971 45.1944 87.1011 45.4643 88.4015 45.4643C89.2603 45.4643 90.0699 45.3416 90.7815 45.0963C91.493 44.8509 92.1064 44.5074 92.5971 44.0658C93.5294 43.207 94.0447 42.0293 94.0938 40.4836H97.6023C97.6023 41.6368 97.357 42.6918 96.9644 43.6732C96.5473 44.6301 95.9585 45.4643 95.2224 46.1513C94.4127 46.9119 93.4313 47.4762 92.3027 47.8442C91.174 48.2368 89.9227 48.4331 88.5733 48.4331C86.4142 48.4331 84.5985 47.9914 83.1019 47.1082H83.0283Z" fill="black"/>
<path d="M103.049 47.2798C101.921 46.6174 101.111 45.6605 100.571 44.4828C100.081 43.4523 99.8599 42.2501 99.8599 40.8761C99.8599 39.5021 100.105 38.2753 100.571 37.2448C101.111 36.0426 101.945 35.1102 103.049 34.4478C104.178 33.7853 105.528 33.4418 107.147 33.4418C108.766 33.4418 110.14 33.7853 111.269 34.4478C112.398 35.1102 113.232 36.0671 113.771 37.2448C114.262 38.3244 114.483 39.5266 114.483 40.8761C114.483 42.2255 114.238 43.4032 113.771 44.5073C113.232 45.7096 112.398 46.6419 111.269 47.3044C110.14 47.9668 108.766 48.3103 107.147 48.3103C105.528 48.3103 104.154 47.9668 103.049 47.3044V47.2798ZM109.331 45.0471C109.919 44.6791 110.361 44.1884 110.655 43.5504C110.95 42.888 111.097 41.9802 111.097 40.827C111.097 39.6738 110.95 38.7415 110.655 38.1036C110.361 37.4411 109.919 36.9504 109.331 36.6069C108.742 36.2634 108.006 36.0917 107.147 36.0917C106.288 36.0917 105.552 36.2634 104.988 36.6069C104.399 36.9504 103.982 37.4656 103.687 38.1036C103.368 38.766 103.221 39.6738 103.221 40.827C103.221 41.9802 103.368 42.8389 103.687 43.5504C103.982 44.1884 104.399 44.6791 104.988 45.0471C105.577 45.4151 106.288 45.5869 107.147 45.5869C108.006 45.5869 108.742 45.4151 109.331 45.0471Z" fill="black"/>
<path d="M128.664 34.865C129.597 35.8464 130.088 37.294 130.088 39.1832V47.9424H126.898V39.8211C126.898 38.5453 126.628 37.613 126.113 37.0241C125.598 36.4353 124.788 36.1163 123.708 36.1163C122.58 36.1163 121.696 36.4353 121.108 37.0732C120.519 37.7111 120.2 38.668 120.2 39.9438V47.9179H116.986V33.7609H120.2V35.3557C121.181 34.0553 122.653 33.3929 124.616 33.3929C126.358 33.3929 127.683 33.8836 128.64 34.865H128.664Z" fill="black"/>
<path d="M135.314 47.0835C134.602 46.372 134.259 45.1943 134.259 43.5749V36.4106H132.051V33.7853H134.259V28.044H137.449V33.7853H141.472V36.4106H137.449V43.0106C137.449 43.8694 137.62 44.4828 137.988 44.8753C138.356 45.2679 138.896 45.4642 139.657 45.4642C140.27 45.4642 140.834 45.3906 141.35 45.2434V47.8932C140.442 48.0895 139.559 48.1876 138.7 48.1876C137.154 48.1876 136.025 47.8196 135.338 47.1081L135.314 47.0835Z" fill="black"/>
<path d="M147.606 33.7854H144.392V47.9423H147.606V33.7854Z" fill="black"/>
<path d="M162.621 34.865C163.554 35.8464 164.044 37.294 164.044 39.1832V47.9424H160.855V39.8211C160.855 38.5453 160.585 37.613 160.069 37.0241C159.554 36.4353 158.745 36.1163 157.665 36.1163C156.536 36.1163 155.653 36.4353 155.064 37.0732C154.475 37.7111 154.156 38.668 154.156 39.9438V47.9179H150.942V33.7609H154.156V35.3557C155.138 34.0553 156.61 33.3929 158.573 33.3929C160.315 33.3929 161.64 33.8836 162.597 34.865H162.621Z" fill="black"/>
<path d="M177.564 44.0166C177.735 43.6976 177.834 43.3541 177.858 43.0352H181.048C180.925 44.4582 180.361 45.6359 179.379 46.5683C178.741 47.1326 177.981 47.5497 177.073 47.8441C176.165 48.1385 175.184 48.2858 174.104 48.2858C172.436 48.2858 171.037 47.9668 169.859 47.3043C168.682 46.6419 167.848 45.7341 167.308 44.5318C166.842 43.5013 166.621 42.25 166.621 40.827C166.621 40.0909 166.67 39.4285 166.793 38.8396C166.915 38.2508 167.087 37.6864 167.308 37.1712C167.848 35.969 168.682 35.0611 169.81 34.3987C170.939 33.7362 172.289 33.4173 173.883 33.4173C175.478 33.4173 176.828 33.7362 177.932 34.3987C179.06 35.0611 179.87 35.969 180.41 37.1467C180.704 37.8091 180.9 38.4961 180.999 39.2076C181.097 39.9192 181.146 40.7779 181.146 41.7593H169.835C169.884 42.6181 170.031 43.2805 170.277 43.7467C170.571 44.4092 171.037 44.8999 171.675 45.2434C172.313 45.5869 173.098 45.7586 174.055 45.7586C174.668 45.7586 175.233 45.685 175.723 45.5378C176.214 45.3906 176.631 45.1698 176.975 44.8753C177.22 44.6545 177.441 44.3601 177.588 44.0411L177.564 44.0166ZM170.277 38.0299C170.08 38.447 169.958 38.9132 169.909 39.3794H177.858C177.809 38.8887 177.686 38.398 177.515 37.9073C177.196 37.2693 176.754 36.7786 176.165 36.4597C175.576 36.1407 174.816 35.969 173.932 35.969C172.117 35.969 170.915 36.6559 170.301 38.0299H170.277Z" fill="black"/>
<path d="M195.498 34.865C196.431 35.8464 196.922 37.294 196.922 39.1832V47.9424H193.732V39.8211C193.732 38.5453 193.462 37.613 192.947 37.0241C192.432 36.4353 191.622 36.1163 190.542 36.1163C189.414 36.1163 188.53 36.4353 187.942 37.0732C187.353 37.7111 187.034 38.668 187.034 39.9438V47.9179H183.82V33.7609H187.034V35.3557C188.015 34.0553 189.487 33.3929 191.45 33.3929C193.192 33.3929 194.517 33.8836 195.474 34.865H195.498Z" fill="black"/>
<path d="M202.148 47.0835C201.436 46.372 201.093 45.1943 201.093 43.5749V36.4106H198.885V33.7853H201.093V28.044H204.283V33.7853H208.306V36.4106H204.283V43.0106C204.283 43.8694 204.454 44.4828 204.822 44.8753C205.19 45.2679 205.73 45.4642 206.491 45.4642C207.104 45.4642 207.668 45.3906 208.184 45.2434V47.8932C207.276 48.0895 206.393 48.1876 205.534 48.1876C203.988 48.1876 202.859 47.8196 202.172 47.1081L202.148 47.0835Z" fill="black"/>
<path d="M223.542 47.9424H220.328V46.3476C219.298 47.648 217.678 48.2859 215.47 48.2859C214.219 48.2859 213.164 48.0896 212.281 47.6725C211.422 47.2799 210.809 46.6665 210.465 45.8814C210.22 45.3171 210.097 44.6792 210.097 43.9676C210.097 43.2561 210.22 42.6427 210.44 42.1275C210.931 41.0725 211.741 40.3364 212.894 39.9438C214.047 39.5513 215.544 39.355 217.384 39.355H220.328V38.9869C220.328 38.6189 220.328 38.3245 220.279 38.0791C220.23 37.8338 220.157 37.5884 220.058 37.3431C219.641 36.4107 218.66 35.9445 217.114 35.9445C216.329 35.9445 215.691 36.0427 215.176 36.2635C214.685 36.4843 214.317 36.8033 214.096 37.2695C213.974 37.613 213.9 37.9319 213.9 38.2263H210.661C210.661 37.4167 210.784 36.7297 211.054 36.1654C211.888 34.3252 213.875 33.3929 217.065 33.3929C218.635 33.3929 219.887 33.6137 220.868 34.0798C221.849 34.546 222.536 35.2575 222.954 36.239C223.346 37.0977 223.542 38.2018 223.542 39.6249V47.9424ZM220.353 41.8331V41.6613H217.605C216.55 41.6613 215.667 41.7595 214.98 41.9312C214.293 42.103 213.826 42.4219 213.63 42.8881C213.507 43.1089 213.458 43.3788 213.458 43.6978C213.458 44.0167 213.507 44.2866 213.63 44.5565C213.826 44.9491 214.17 45.268 214.636 45.4643C215.127 45.6606 215.691 45.7587 216.329 45.7587C217.261 45.7587 218.022 45.587 218.635 45.268C219.249 44.9491 219.715 44.4584 219.985 43.8204C220.206 43.2561 220.328 42.6182 220.328 41.8576L220.353 41.8331Z" fill="black"/>
<path d="M226.045 28.0196H229.259V47.9424H226.045V28.0196Z" fill="black"/>
<path d="M115.979 3.97475C117.023 3.97475 117.868 3.12891 117.868 2.08552C117.868 1.04213 117.023 0.196289 115.979 0.196289C114.936 0.196289 114.09 1.04213 114.09 2.08552C114.09 3.12891 114.936 3.97475 115.979 3.97475Z" fill="black"/>
<path d="M145.986 31.6752C147.029 31.6752 147.875 30.8294 147.875 29.786C147.875 28.7426 147.029 27.8968 145.986 27.8968C144.943 27.8968 144.097 28.7426 144.097 29.786C144.097 30.8294 144.943 31.6752 145.986 31.6752Z" fill="black"/>
<path d="M177.882 3.97475C178.926 3.97475 179.771 3.12891 179.771 2.08552C179.771 1.04213 178.926 0.196289 177.882 0.196289C176.839 0.196289 175.993 1.04213 175.993 2.08552C175.993 3.12891 176.839 3.97475 177.882 3.97475Z" fill="black"/>
</svg>
