<svg width="104" height="24" viewBox="0 0 104 24" fill="none" xmlns="http://www.w3.org/2000/svg">
<g clip-path="url(#clip0_4091_108)">
<path d="M37.8821 9.85523C37.2441 9.26542 36.9224 8.34316 36.9224 7.0992V0H38.5899V6.97051C38.5899 7.74263 38.7722 8.31635 39.1368 8.69169C39.5015 9.06702 40.0805 9.24933 40.8741 9.24933C41.6677 9.24933 42.236 9.06166 42.6006 8.69169C42.9706 8.32172 43.1529 7.74799 43.1529 6.97051V0H44.8205V7.0992C44.8205 8.34853 44.5041 9.26542 43.8714 9.85523C43.2387 10.445 42.236 10.7399 40.8741 10.7399C39.5122 10.7399 38.5202 10.445 37.8821 9.85523Z" fill="#050504"/>
<path d="M48.3488 10.0751C47.6035 9.63002 47.0512 8.99731 46.692 8.17157C46.3435 7.40482 46.1719 6.47184 46.1719 5.36728C46.1719 4.26273 46.3435 3.34584 46.692 2.55227C47.062 1.73726 47.6142 1.10991 48.3542 0.66487C49.0941 0.21983 50.0003 -0.00537109 51.078 -0.00537109C51.7483 -0.00537109 52.3595 0.0911436 52.9225 0.284173C53.4855 0.477203 53.9681 0.761385 54.3756 1.14208C54.751 1.47988 55.0459 1.89275 55.2603 2.37533C55.4748 2.8579 55.5874 3.38873 55.6089 3.9571H53.8502C53.8126 3.22251 53.5553 2.6327 53.078 2.18766C52.5579 1.72117 51.8662 1.49061 51.0191 1.49061C50.3595 1.49061 49.8019 1.63002 49.3515 1.90348C48.8957 2.17693 48.5526 2.56836 48.322 3.07238C48.1987 3.37265 48.1022 3.71045 48.0378 4.08042C47.9735 4.45576 47.9413 4.87935 47.9413 5.36728C47.9413 5.85522 47.9681 6.2949 48.0271 6.66487C48.0861 7.04021 48.1826 7.36728 48.3166 7.65683C48.5472 8.17157 48.8904 8.56299 49.3461 8.83109C49.8019 9.10455 50.3595 9.2386 51.0137 9.2386C51.448 9.2386 51.8448 9.17962 52.204 9.05629C52.5633 8.93297 52.8689 8.76139 53.1209 8.54155C53.5928 8.11795 53.8448 7.51742 53.877 6.73994H55.6357C55.625 7.31903 55.5177 7.85522 55.3086 8.33779C55.0995 8.82037 54.8099 9.2386 54.4292 9.58712C54.0217 9.96246 53.5338 10.252 52.9654 10.445C52.3917 10.6381 51.7697 10.7346 51.0941 10.7346C50.011 10.7346 49.0941 10.5094 48.3488 10.0643V10.0751Z" fill="#050504"/>
<path d="M38.5953 23.5066C37.9572 23.1796 37.5015 22.7131 37.228 22.1125C37.0242 21.63 36.9224 21.0777 36.9224 20.4557H38.7347C38.7561 20.9222 38.8205 21.2922 38.9384 21.571C39.0939 21.9088 39.3513 22.1661 39.7106 22.3485C40.0698 22.5254 40.5202 22.6166 41.0618 22.6166C41.6033 22.6166 42.0269 22.5361 42.3915 22.3753C42.7561 22.2144 42.9974 21.9892 43.1261 21.6997C43.2226 21.4745 43.2709 21.2546 43.2709 21.0294C43.2709 20.8042 43.228 20.6112 43.1422 20.4182C43.0457 20.193 42.8795 20.0053 42.6435 19.8498C42.4076 19.6943 42.1449 19.571 41.85 19.4798C41.5604 19.3887 41.1529 19.2814 40.6328 19.1527L40.2092 19.0509C39.4639 18.8471 38.858 18.6112 38.3862 18.3485C37.9143 18.0804 37.5819 17.7265 37.3781 17.2814C37.2334 16.9436 37.1583 16.5737 37.1583 16.1769C37.1583 15.7801 37.2441 15.3994 37.421 15.0026C37.6623 14.4503 38.0966 14.0214 38.7186 13.7104C39.3406 13.3994 40.0752 13.2439 40.917 13.2439C41.7588 13.2439 42.488 13.3994 43.0779 13.7104C43.6677 14.0214 44.0913 14.4664 44.3433 15.0455C44.4505 15.2761 44.5256 15.5227 44.5738 15.7801C44.6221 16.0375 44.6489 16.3216 44.6489 16.6273H42.9224C42.9116 16.3967 42.8956 16.193 42.8634 16.0267C42.8366 15.8552 42.7883 15.705 42.7347 15.571C42.5899 15.2439 42.3594 14.9972 42.0376 14.831C41.7159 14.6648 41.3245 14.5844 40.8634 14.5844C40.4023 14.5844 40.0162 14.6648 39.6784 14.8257C39.346 14.9865 39.1208 15.201 39.0028 15.4745C38.9545 15.5603 38.9224 15.646 38.9063 15.7265C38.8902 15.8069 38.8848 15.9034 38.8848 16.0107C38.8848 16.1286 38.8902 16.2251 38.9063 16.3109C38.9224 16.3913 38.9492 16.4718 38.9867 16.5522C39.0725 16.756 39.228 16.9275 39.4425 17.067C39.6623 17.2064 39.9036 17.319 40.1771 17.3994C40.4452 17.4798 40.8258 17.5871 41.3084 17.7104C41.4157 17.7318 41.5765 17.7694 41.7856 17.8283C42.3379 17.9731 42.8044 18.1179 43.1797 18.2627C43.5551 18.4074 43.8929 18.5951 44.1878 18.8203C44.4827 19.0455 44.7079 19.3297 44.8634 19.6675C45.0082 19.9946 45.0832 20.3967 45.0832 20.8739C45.0832 21.3511 45.0028 21.7747 44.8366 22.1501C44.5738 22.7506 44.1127 23.2064 43.4425 23.5227C42.7722 23.8391 41.9626 23.9946 41.0028 23.9946C40.043 23.9946 39.2334 23.8283 38.5953 23.5013V23.5066Z" fill="#050504"/>
<path d="M47.5661 23.4155C47.0031 23.0777 46.5902 22.6058 46.3168 22.0053C46.0755 21.4905 45.9521 20.8846 45.9521 20.1929C45.9521 19.5012 46.0755 18.8846 46.3168 18.3645C46.5902 17.764 47.0031 17.2975 47.5661 16.9543C48.1291 16.6165 48.8154 16.4449 49.6251 16.4449C50.4347 16.4449 51.1264 16.6165 51.6948 16.9543C52.2631 17.2921 52.6814 17.764 52.9495 18.3645C53.1908 18.9061 53.3141 19.5173 53.3141 20.1929C53.3141 20.8685 53.1908 21.4637 52.9495 22.0214C52.676 22.6219 52.2578 23.0884 51.6948 23.4208C51.1264 23.7533 50.4401 23.9195 49.6251 23.9195C48.8101 23.9195 48.1237 23.7479 47.5661 23.4101V23.4155ZM50.7243 22.3055C51.0192 22.1286 51.239 21.8766 51.3838 21.5602C51.5286 21.2331 51.6036 20.7774 51.6036 20.1929C51.6036 19.6085 51.5286 19.1474 51.3838 18.8256C51.239 18.4986 51.0192 18.2466 50.7243 18.0696C50.4294 17.898 50.0647 17.8069 49.6304 17.8069C49.1961 17.8069 48.8315 17.8927 48.542 18.0696C48.2524 18.2412 48.0326 18.4932 47.8878 18.8256C47.7323 19.1634 47.6572 19.6192 47.6572 20.1929C47.6572 20.7667 47.7323 21.2117 47.8878 21.5602C48.0326 21.8819 48.2524 22.1286 48.542 22.3055C48.8315 22.4825 49.1961 22.5736 49.6304 22.5736C50.0647 22.5736 50.4294 22.4825 50.7243 22.3055Z" fill="#050504"/>
<path d="M55.3728 23.6192C54.8956 23.3887 54.5471 23.0401 54.3326 22.5736C54.1771 22.2358 54.1021 21.8391 54.1021 21.3833H55.6677C55.6677 21.6568 55.716 21.882 55.8125 22.0643C56.027 22.5307 56.4827 22.7613 57.1905 22.7613C57.8983 22.7613 58.3326 22.579 58.4988 22.209C58.5471 22.0857 58.5739 21.9624 58.5739 21.8444C58.5739 21.7104 58.5471 21.5817 58.4988 21.4691C58.4291 21.3243 58.3219 21.2063 58.1718 21.1206C58.0216 21.0348 57.8393 20.9597 57.6195 20.8954C57.3996 20.831 57.094 20.7613 56.6972 20.6862C56.1557 20.5629 55.6945 20.3913 55.3192 20.1876C54.9439 19.9785 54.6704 19.6943 54.5042 19.3243C54.4077 19.0991 54.3594 18.8417 54.3594 18.5415C54.3594 18.2198 54.4184 17.9409 54.531 17.6996C54.7133 17.3029 55.035 16.9972 55.4908 16.7774C55.9466 16.5576 56.4935 16.4503 57.1315 16.4503C57.7696 16.4503 58.3273 16.5576 58.7777 16.772C59.2281 16.9865 59.5551 17.2975 59.7589 17.7157C59.8822 18.0053 59.9466 18.3538 59.9466 18.7613H58.4238C58.4238 18.5468 58.3862 18.3484 58.3058 18.1661C58.2093 17.9731 58.0592 17.823 57.85 17.7211C57.6409 17.6192 57.3943 17.571 57.1047 17.571C56.5149 17.571 56.1396 17.7318 55.9895 18.0482C55.9519 18.134 55.9305 18.2466 55.9305 18.3806C55.9305 18.5039 55.9519 18.6058 55.9895 18.6702C56.0592 18.8257 56.1771 18.949 56.3541 19.0455C56.5256 19.142 56.7133 19.2171 56.9117 19.2707C57.1101 19.3243 57.405 19.394 57.7911 19.4798C58.3916 19.6353 58.8795 19.8176 59.2656 20.0267C59.6463 20.2358 59.9251 20.5254 60.1021 20.89C60.1986 21.1152 60.2468 21.3779 60.2468 21.6889C60.2468 22.0267 60.1878 22.3431 60.0752 22.6326C59.8715 23.0669 59.5122 23.3994 58.9921 23.6299C58.472 23.8551 57.8661 23.9731 57.1691 23.9731C56.472 23.9731 55.8554 23.8551 55.3782 23.6246L55.3728 23.6192Z" fill="#050504"/>
<path d="M62.2951 23.3243C61.9412 22.9597 61.7642 22.3753 61.7642 21.5603V17.9571H60.6597V16.638H61.7642V13.2546H63.3621V16.638H65.3782V17.9571H63.3621V21.2654C63.3621 21.689 63.4532 22.0053 63.6302 22.2037C63.8071 22.4021 64.0859 22.504 64.4666 22.504C64.7776 22.504 65.0618 22.4664 65.3245 22.386V23.7211C64.8688 23.8176 64.4237 23.8659 63.9894 23.8659C63.2173 23.8659 62.6489 23.6836 62.3004 23.319L62.2951 23.3243Z" fill="#050504"/>
<path d="M71.4266 21.7747C71.507 21.6085 71.5607 21.4476 71.5767 21.2814H73.1746C73.1049 21.9999 72.8261 22.5897 72.3328 23.0508C72.0111 23.3297 71.625 23.5495 71.1692 23.6943C70.7135 23.8444 70.2148 23.9195 69.6733 23.9195C68.8422 23.9195 68.1344 23.7532 67.5446 23.4262C66.9601 23.0991 66.5312 22.6326 66.2577 22.0321C66.0271 21.512 65.9092 20.89 65.9092 20.1715C65.9092 19.8015 65.936 19.4691 65.995 19.1688C66.0539 18.8685 66.1397 18.5897 66.2577 18.327C66.5258 17.7264 66.9494 17.26 67.5124 16.9329C68.0808 16.6058 68.7564 16.4396 69.5499 16.4396C70.3435 16.4396 71.0245 16.6058 71.5875 16.9329C72.1558 17.26 72.5687 17.7211 72.8314 18.3109C72.9762 18.638 73.0781 18.9811 73.1317 19.3404C73.1853 19.6996 73.2121 20.1232 73.2121 20.6165H67.5338C67.5607 21.0401 67.6357 21.3779 67.7537 21.6192C67.8985 21.9463 68.129 22.1983 68.4507 22.3752C68.7724 22.5522 69.1692 22.638 69.6411 22.638C69.9521 22.638 70.2309 22.6004 70.4829 22.52C70.7349 22.4449 70.944 22.3323 71.1049 22.1876C71.2282 22.0696 71.3355 21.9302 71.4159 21.764L71.4266 21.7747ZM67.7644 18.772C67.6679 18.9865 67.6036 19.2117 67.5767 19.453H71.5714C71.5446 19.201 71.4856 18.9543 71.3998 18.713C71.2443 18.3913 71.0191 18.15 70.7188 17.9892C70.4186 17.823 70.0486 17.7425 69.5982 17.7425C68.6867 17.7425 68.0808 18.0857 67.7698 18.772H67.7644Z" fill="#050504"/>
<path d="M80.2307 17.1902C80.7026 17.6835 80.9439 18.4074 80.9439 19.3511V23.7479H79.346V19.6675C79.346 19.0294 79.2173 18.5575 78.9546 18.2573C78.6918 17.957 78.2897 17.8069 77.7481 17.8069C77.1744 17.8069 76.7401 17.9677 76.4398 18.2948C76.1396 18.6165 75.9894 19.0991 75.9894 19.7372V23.7425H74.3755V16.6272H75.9894V17.4262C76.4827 16.7667 77.2227 16.4396 78.2093 16.4396C79.0779 16.4396 79.7535 16.6862 80.2254 17.1795L80.2307 17.1902Z" fill="#050504"/>
<path d="M82.5093 14.815C82.327 14.6434 82.2358 14.4289 82.2358 14.1715C82.2358 13.9142 82.327 13.6782 82.5039 13.512C82.6809 13.3404 82.9222 13.26 83.2224 13.26C83.5013 13.26 83.7318 13.3458 83.9034 13.512C84.075 13.6836 84.1661 13.9034 84.1661 14.1715C84.1661 14.4396 84.075 14.6487 83.898 14.815C83.7211 14.9866 83.4959 15.067 83.2224 15.067C82.9329 15.067 82.697 14.9812 82.5093 14.815ZM82.3967 16.4504H84.0106V23.7533H82.3967V16.4504Z" fill="#050504"/>
<path d="M92.7615 20.193C92.7615 20.5522 92.7294 20.8954 92.6597 21.2332C92.59 21.5656 92.4934 21.8766 92.3701 22.1554C92.1181 22.7184 91.7481 23.1528 91.2495 23.4638C90.7562 23.7747 90.161 23.9302 89.464 23.9302C88.9492 23.9302 88.4935 23.8445 88.0913 23.6675C87.6892 23.4959 87.3514 23.2332 87.0833 22.8847V23.7533H85.5176V13.2546H87.1315V17.453C87.405 17.126 87.7374 16.8739 88.1342 16.7077C88.531 16.5361 88.976 16.4557 89.4693 16.4557C90.1664 16.4557 90.7615 16.6112 91.2548 16.9222C91.7481 17.2332 92.1235 17.6675 92.3755 18.2305C92.6382 18.8096 92.7669 19.4691 92.7669 20.2037L92.7615 20.193ZM91.0511 20.193C91.0511 19.6514 90.976 19.1957 90.8205 18.8257C90.665 18.4879 90.4398 18.2305 90.1396 18.0643C89.8393 17.8927 89.48 17.8123 89.0672 17.8123C88.4666 17.8123 87.9948 18.0053 87.6463 18.386C87.2977 18.7667 87.1262 19.3083 87.1262 20.0053V20.3699C87.1262 21.0777 87.2977 21.6193 87.6463 22.0053C87.9948 22.386 88.4666 22.579 89.0672 22.579C89.4854 22.579 89.8393 22.4932 90.1396 22.3163C90.4398 22.1447 90.665 21.8873 90.8205 21.5495C90.976 21.1796 91.0511 20.7292 91.0511 20.1983V20.193Z" fill="#050504"/>
<path d="M93.9253 13.2546H95.5392V23.7533H93.9253V13.2546Z" fill="#050504"/>
<path d="M102.204 21.7747C102.284 21.6085 102.338 21.4476 102.354 21.2814H103.952C103.882 21.9999 103.603 22.5897 103.11 23.0508C102.788 23.3297 102.402 23.5495 101.947 23.6943C101.491 23.8444 100.992 23.9195 100.451 23.9195C99.6195 23.9195 98.9117 23.7532 98.3219 23.4262C97.7375 23.0991 97.3085 22.6326 97.035 22.0321C96.8045 21.512 96.6865 20.89 96.6865 20.1715C96.6865 19.8015 96.7133 19.4691 96.7723 19.1688C96.8313 18.8685 96.9171 18.5897 97.035 18.327C97.3031 17.7264 97.7267 17.26 98.2897 16.9329C98.8581 16.6058 99.5337 16.4396 100.327 16.4396C101.121 16.4396 101.802 16.6058 102.365 16.9329C102.933 17.26 103.346 17.7211 103.609 18.3109C103.754 18.638 103.855 18.9811 103.909 19.3404C103.963 19.6996 103.989 20.1232 103.989 20.6165H98.3112C98.338 21.0401 98.4131 21.3779 98.531 21.6192C98.6758 21.9463 98.9064 22.1983 99.2281 22.3752C99.5498 22.5522 99.9466 22.638 100.418 22.638C100.729 22.638 101.008 22.6004 101.26 22.52C101.512 22.4449 101.721 22.3323 101.882 22.1876C102.006 22.0696 102.113 21.9302 102.193 21.764L102.204 21.7747ZM98.5417 18.772C98.4452 18.9865 98.3809 19.2117 98.3541 19.453H102.349C102.322 19.201 102.263 18.9543 102.177 18.713C102.022 18.3913 101.796 18.15 101.496 17.9892C101.196 17.823 100.826 17.7425 100.376 17.7425C99.464 17.7425 98.8581 18.0857 98.5471 18.772H98.5417Z" fill="#050504"/>
<path d="M6.72934 23.9785L1.28162 15.6676V9.71045L2.72934 11.1528V14.5308L10.1074 21.9142L10.9653 21.0617L4.42907 14.5255H6.47733L13.3889 21.4424V23.9785H14.5953V20.9437L13.3889 19.7373L8.18243 14.5255L6.97599 13.319H3.94114V10.6541L2.72934 9.44235L1.28162 7.99463H0.0698242V15.9785L5.32988 23.9785H6.72934Z" fill="#050504"/>
<path d="M17.2601 23.9785V21.4424L24.1717 14.5255H26.2199L19.6837 21.0617L20.5416 21.9142L27.9197 14.5308V11.1528L29.3674 9.71045V15.6676L23.9197 23.9785H25.3191L30.5792 15.9785V7.99463H29.3674L27.9197 9.44235L26.7079 10.6541V13.319H23.673L22.4666 14.5255L17.2601 19.7373L16.0537 20.9437V23.9785H17.2601Z" fill="#050504"/>
<path d="M5.59292 11.8713H6.82617C6.72965 11.437 6.65995 10.992 6.62777 10.5362H10.7672C10.8154 10.9384 10.9227 11.3244 11.0728 11.6837L8.73501 13.0349L9.62509 13.925L11.6841 12.7346C11.9254 13.051 12.2095 13.3351 12.5259 13.5764L11.3356 15.6354L12.2256 16.5255L13.5768 14.1877C13.9414 14.3378 14.3275 14.4451 14.7243 14.4933V18.6327C14.5795 18.622 14.4347 18.6113 14.29 18.5952L15.3248 19.6301L16.365 18.5898C16.2203 18.6059 16.0755 18.622 15.9307 18.6327V14.4987C16.3329 14.4451 16.7189 14.3432 17.0782 14.1931L18.4294 16.5309L19.3195 15.6408L18.1291 13.5818C18.4455 13.3459 18.7297 13.0617 18.9709 12.74L21.0299 13.9303L21.9146 13.0456L19.5768 11.6944C19.727 11.3298 19.8342 10.9437 19.8825 10.5416H24.0219C23.9897 10.9973 23.9254 11.4424 23.8235 11.8767H25.0567C25.1425 11.4424 25.2015 10.992 25.2283 10.5416C25.2444 10.3432 25.2498 10.1394 25.2498 9.94105C25.2498 9.74266 25.2444 9.5389 25.2283 9.33515C25.1479 7.96786 24.7886 6.67563 24.2042 5.51209C24.0272 5.14748 23.8235 4.79896 23.5983 4.46652C22.8691 3.35123 21.9146 2.39681 20.7994 1.66759C20.4669 1.44239 20.113 1.23863 19.7484 1.06169C18.5849 0.477239 17.2927 0.11799 15.9254 0.037561C15.7216 0.0214752 15.5232 0.0161133 15.3195 0.0161133C15.1157 0.0161133 14.9173 0.0214752 14.7189 0.037561C13.3516 0.11799 12.0594 0.477239 10.8959 1.06169C10.5313 1.23863 10.1827 1.44239 9.84493 1.66759C8.73501 2.39681 7.78059 3.35123 7.04601 4.46652C6.8208 4.79896 6.61705 5.14748 6.44011 5.51209C5.85566 6.67563 5.49641 7.96786 5.41598 9.33515C5.39989 9.5389 5.39453 9.73729 5.39453 9.94105C5.39453 10.1448 5.39989 10.3432 5.41598 10.5416C5.44279 10.9973 5.50177 11.4424 5.58756 11.8767L5.59292 11.8713ZM24.0165 9.32442H19.8825C19.8288 8.92228 19.727 8.53622 19.5768 8.17697L23.1586 6.10727C23.6412 7.0885 23.9415 8.17697 24.0165 9.32442ZM20.1988 2.70244C21.1264 3.32979 21.9254 4.12871 22.5581 5.05633L18.9709 7.12603C18.735 6.80968 18.4508 6.5255 18.1291 6.28421L20.1988 2.69708V2.70244ZM15.9307 1.23863C17.0782 1.3137 18.1667 1.61397 19.1479 2.09654L17.0835 5.67295C16.7189 5.52282 16.3329 5.42094 15.9307 5.36732V1.23863ZM15.3248 6.54158C15.5339 6.54158 15.7377 6.55767 15.9307 6.5952C16.1184 6.62737 16.2953 6.67563 16.4723 6.73997C16.8583 6.87938 17.2122 7.08314 17.5179 7.34587C17.6626 7.46384 17.7913 7.59788 17.9093 7.73729C18.172 8.04292 18.3811 8.39681 18.5152 8.78823C18.5795 8.95981 18.6278 9.14212 18.6599 9.32442C18.6975 9.51745 18.7136 9.72121 18.7136 9.93032C18.7136 10.1394 18.6975 10.3378 18.6599 10.5309C18.6278 10.7185 18.5795 10.8955 18.5152 11.0724C18.3758 11.4585 18.172 11.8124 17.9093 12.118C17.7913 12.2628 17.6573 12.3914 17.5179 12.5094C17.2122 12.7721 16.8583 12.9813 16.4669 13.1153C16.2953 13.1797 16.113 13.2279 15.9307 13.2601C15.7377 13.2976 15.5339 13.3137 15.3248 13.3137C15.1157 13.3137 14.9173 13.2976 14.7243 13.2601C14.542 13.2279 14.3597 13.1797 14.1881 13.1153C13.802 12.9813 13.4482 12.7721 13.1372 12.5094C12.9924 12.3914 12.8637 12.2574 12.7457 12.118C12.483 11.8124 12.2739 11.4585 12.1398 11.0671C12.0755 10.8955 12.0272 10.7132 11.9951 10.5309C11.9575 10.3378 11.9414 10.1341 11.9414 9.93032C11.9414 9.72657 11.9575 9.51745 11.9951 9.32442C12.0272 9.14212 12.0755 8.95981 12.1398 8.78823C12.2739 8.40217 12.483 8.04829 12.7457 7.73729C12.8637 7.59252 12.9977 7.46384 13.1372 7.34587C13.4428 7.08314 13.7967 6.87938 14.1827 6.73997C14.3543 6.67563 14.5366 6.62737 14.7243 6.5952C14.9173 6.55767 15.1211 6.54158 15.3248 6.54158ZM14.7189 1.23327V5.36732C14.3168 5.41558 13.9307 5.52282 13.5661 5.67295L11.5018 2.09654C12.483 1.61397 13.5768 1.30834 14.7189 1.23327ZM10.4508 2.70244L12.5205 6.28957C12.2042 6.5255 11.92 6.80968 11.6787 7.1314L8.09158 5.06169C8.72429 4.13408 9.52322 3.33515 10.4508 2.7078V2.70244ZM7.49105 6.1019L11.0728 8.17161C10.9227 8.53622 10.8208 8.91692 10.7672 9.31906H6.63314C6.7082 8.17161 7.00847 7.08314 7.49105 6.1019Z" fill="#050504"/>
</g>
<defs>
<clipPath id="clip0_4091_108">
<rect width="103.93" height="24" fill="white" transform="translate(0.0698242)"/>
</clipPath>
</defs>
</svg>
